<?xml version="1.0" encoding="UTF-8"?>
<svg xmlns="http://www.w3.org/2000/svg" xmlns:xlink="http://www.w3.org/1999/xlink" width="204.598434pt" height="95.36338pt" viewBox="0 0 204.598434 95.36338" version="1.1">
<g id="surface1">
<path style="fill-rule:nonzero;fill:rgb(0.392151%,60.783386%,100%);fill-opacity:0.627451;stroke-width:1.3264;stroke-linecap:butt;stroke-linejoin:miter;stroke:rgb(0%,0%,0%);stroke-opacity:1;stroke-miterlimit:4;" d="M 3.632812 26.703125 L 199.632812 26.703125 L 199.632812 94.703125 L 3.632812 94.703125 Z M 3.632812 26.703125 "/>
<path style="fill-rule:nonzero;fill:rgb(0.392151%,60.783386%,100%);fill-opacity:0.627451;stroke-width:1.3264;stroke-linecap:butt;stroke-linejoin:miter;stroke:rgb(0%,0%,0%);stroke-opacity:1;stroke-miterlimit:4;" d="M 3.632812 10.703125 L 199.632812 10.703125 L 199.632812 26.703125 L 3.632812 26.703125 Z M 3.632812 10.703125 "/>
<path style=" stroke:none;fill-rule:nonzero;fill:rgb(0%,0%,0%);fill-opacity:1;" d="M 78.304688 22.703125 L 78.304688 18.109375 C 78.304688 17.945312 78.304688 17.777344 78.304688 17.609375 C 78.3125 17.433594 78.320312 17.273438 78.320312 17.125 C 78.328125 16.960938 78.339844 16.796875 78.351562 16.640625 C 78.296875 16.808594 78.25 16.976562 78.210938 17.140625 C 78.167969 17.277344 78.121094 17.429688 78.070312 17.59375 C 78.015625 17.75 77.964844 17.894531 77.914062 18.015625 L 76.132812 22.703125 L 75.492188 22.703125 L 73.679688 18.015625 C 73.65625 17.964844 73.636719 17.90625 73.617188 17.84375 C 73.59375 17.785156 73.574219 17.714844 73.554688 17.640625 C 73.53125 17.570312 73.503906 17.496094 73.476562 17.421875 C 73.453125 17.339844 73.433594 17.261719 73.414062 17.1875 C 73.351562 17.011719 73.292969 16.828125 73.242188 16.640625 C 73.25 16.828125 73.257812 17.011719 73.257812 17.1875 C 73.265625 17.34375 73.273438 17.507812 73.273438 17.671875 C 73.28125 17.839844 73.289062 17.988281 73.289062 18.109375 L 73.289062 22.703125 L 72.460938 22.703125 L 72.460938 15.828125 L 73.679688 15.828125 L 75.507812 20.59375 C 75.527344 20.65625 75.554688 20.742188 75.585938 20.84375 C 75.625 20.949219 75.65625 21.058594 75.679688 21.171875 C 75.707031 21.277344 75.734375 21.378906 75.757812 21.46875 C 75.785156 21.5625 75.808594 21.636719 75.820312 21.6875 C 75.828125 21.636719 75.84375 21.5625 75.867188 21.46875 C 75.894531 21.367188 75.929688 21.261719 75.960938 21.15625 C 75.988281 21.054688 76.023438 20.949219 76.054688 20.84375 C 76.09375 20.742188 76.125 20.65625 76.148438 20.59375 L 77.945312 15.828125 L 79.148438 15.828125 L 79.148438 22.703125 Z M 80.984375 20.25 C 80.984375 20.523438 81.007812 20.777344 81.0625 21.015625 C 81.121094 21.246094 81.210938 21.445312 81.328125 21.609375 C 81.449219 21.777344 81.609375 21.910156 81.796875 22 C 81.980469 22.09375 82.207031 22.140625 82.46875 22.140625 C 82.839844 22.140625 83.144531 22.070312 83.375 21.921875 C 83.601562 21.769531 83.757812 21.570312 83.84375 21.328125 L 84.609375 21.546875 C 84.554688 21.695312 84.476562 21.847656 84.375 22 C 84.28125 22.148438 84.148438 22.285156 83.984375 22.40625 C 83.816406 22.523438 83.605469 22.617188 83.359375 22.6875 C 83.109375 22.757812 82.808594 22.796875 82.46875 22.796875 C 81.6875 22.796875 81.085938 22.570312 80.671875 22.109375 C 80.265625 21.644531 80.0625 20.949219 80.0625 20.03125 C 80.0625 19.535156 80.125 19.109375 80.25 18.765625 C 80.371094 18.425781 80.539062 18.148438 80.75 17.9375 C 80.964844 17.722656 81.21875 17.5625 81.5 17.46875 C 81.789062 17.378906 82.097656 17.328125 82.421875 17.328125 C 82.867188 17.328125 83.238281 17.402344 83.53125 17.546875 C 83.832031 17.683594 84.070312 17.882812 84.25 18.140625 C 84.433594 18.390625 84.566406 18.691406 84.640625 19.03125 C 84.722656 19.367188 84.765625 19.730469 84.765625 20.125 L 84.765625 20.25 Z M 83.84375 19.578125 C 83.800781 19.019531 83.660156 18.609375 83.421875 18.359375 C 83.191406 18.101562 82.855469 17.96875 82.421875 17.96875 C 82.265625 17.96875 82.105469 17.996094 81.953125 18.046875 C 81.796875 18.089844 81.644531 18.175781 81.5 18.296875 C 81.363281 18.414062 81.246094 18.574219 81.15625 18.78125 C 81.0625 18.992188 81.007812 19.257812 81 19.578125 Z M 87.6875 22.65625 C 87.550781 22.699219 87.414062 22.726562 87.28125 22.75 C 87.144531 22.769531 86.980469 22.78125 86.796875 22.78125 C 86.097656 22.78125 85.75 22.382812 85.75 21.578125 L 85.75 18.0625 L 85.140625 18.0625 L 85.140625 17.421875 L 85.78125 17.421875 L 86.046875 16.234375 L 86.625 16.234375 L 86.625 17.421875 L 87.609375 17.421875 L 87.609375 18.0625 L 86.625 18.0625 L 86.625 21.390625 C 86.625 21.652344 86.664062 21.835938 86.75 21.9375 C 86.832031 22.03125 86.976562 22.078125 87.1875 22.078125 C 87.269531 22.078125 87.347656 22.074219 87.421875 22.0625 C 87.503906 22.054688 87.59375 22.039062 87.6875 22.015625 Z M 89.664062 22.796875 C 89.132812 22.796875 88.730469 22.65625 88.460938 22.375 C 88.199219 22.097656 88.070312 21.714844 88.070312 21.234375 C 88.070312 20.882812 88.136719 20.59375 88.273438 20.375 C 88.40625 20.148438 88.578125 19.96875 88.789062 19.84375 C 88.996094 19.722656 89.234375 19.636719 89.507812 19.59375 C 89.785156 19.542969 90.070312 19.511719 90.351562 19.5 L 91.539062 19.484375 L 91.539062 19.1875 C 91.539062 18.972656 91.511719 18.789062 91.460938 18.640625 C 91.417969 18.488281 91.347656 18.359375 91.257812 18.265625 C 91.164062 18.175781 91.042969 18.105469 90.898438 18.0625 C 90.761719 18.011719 90.597656 17.984375 90.414062 17.984375 C 90.234375 17.984375 90.078125 18.003906 89.945312 18.03125 C 89.808594 18.054688 89.6875 18.097656 89.585938 18.15625 C 89.492188 18.21875 89.410156 18.308594 89.351562 18.421875 C 89.289062 18.527344 89.246094 18.664062 89.226562 18.828125 L 88.304688 18.75 C 88.332031 18.542969 88.398438 18.351562 88.492188 18.171875 C 88.582031 17.996094 88.714844 17.84375 88.882812 17.71875 C 89.046875 17.597656 89.257812 17.5 89.507812 17.4375 C 89.753906 17.367188 90.0625 17.328125 90.429688 17.328125 C 91.09375 17.328125 91.59375 17.480469 91.929688 17.78125 C 92.261719 18.085938 92.429688 18.523438 92.429688 19.09375 L 92.429688 21.375 C 92.429688 21.636719 92.460938 21.835938 92.523438 21.96875 C 92.59375 22.09375 92.730469 22.15625 92.929688 22.15625 C 92.96875 22.15625 93.015625 22.15625 93.070312 22.15625 C 93.121094 22.148438 93.167969 22.136719 93.210938 22.125 L 93.210938 22.671875 C 93.09375 22.703125 92.980469 22.722656 92.867188 22.734375 C 92.761719 22.742188 92.652344 22.75 92.539062 22.75 C 92.371094 22.75 92.222656 22.726562 92.101562 22.6875 C 91.984375 22.648438 91.886719 22.578125 91.804688 22.484375 C 91.730469 22.394531 91.671875 22.28125 91.632812 22.15625 C 91.601562 22.023438 91.578125 21.867188 91.570312 21.6875 L 91.539062 21.6875 C 91.445312 21.867188 91.339844 22.023438 91.226562 22.15625 C 91.109375 22.292969 90.980469 22.410156 90.835938 22.5 C 90.6875 22.59375 90.515625 22.667969 90.320312 22.71875 C 90.132812 22.769531 89.910156 22.796875 89.664062 22.796875 Z M 89.867188 22.140625 C 90.144531 22.140625 90.390625 22.089844 90.601562 21.984375 C 90.808594 21.882812 90.980469 21.75 91.117188 21.59375 C 91.261719 21.441406 91.367188 21.265625 91.429688 21.078125 C 91.5 20.882812 91.539062 20.699219 91.539062 20.53125 L 91.539062 20.09375 L 90.585938 20.109375 C 90.367188 20.121094 90.15625 20.144531 89.960938 20.171875 C 89.773438 20.195312 89.605469 20.246094 89.460938 20.328125 C 89.3125 20.414062 89.191406 20.527344 89.101562 20.671875 C 89.015625 20.820312 88.976562 21.011719 88.976562 21.25 C 88.976562 21.53125 89.054688 21.753906 89.210938 21.90625 C 89.363281 22.0625 89.585938 22.140625 89.867188 22.140625 Z M 93.664062 16.296875 L 93.664062 15.453125 L 94.539062 15.453125 L 94.539062 16.296875 Z M 93.664062 22.703125 L 93.664062 17.421875 L 94.539062 17.421875 L 94.539062 22.703125 Z M 99.160156 22.703125 L 99.160156 19.359375 C 99.160156 19.101562 99.136719 18.886719 99.097656 18.71875 C 99.066406 18.542969 99 18.402344 98.910156 18.296875 C 98.824219 18.183594 98.714844 18.105469 98.582031 18.0625 C 98.445312 18.023438 98.273438 18 98.066406 18 C 97.855469 18 97.667969 18.039062 97.503906 18.109375 C 97.335938 18.183594 97.1875 18.292969 97.066406 18.4375 C 96.949219 18.574219 96.859375 18.746094 96.800781 18.953125 C 96.738281 19.152344 96.707031 19.382812 96.707031 19.640625 L 96.707031 22.703125 L 95.816406 22.703125 L 95.816406 18.546875 C 95.816406 18.433594 95.816406 18.320312 95.816406 18.203125 C 95.816406 18.082031 95.808594 17.964844 95.800781 17.859375 C 95.800781 17.746094 95.800781 17.652344 95.800781 17.578125 C 95.800781 17.496094 95.800781 17.445312 95.800781 17.421875 L 96.628906 17.421875 C 96.628906 17.433594 96.628906 17.476562 96.628906 17.546875 C 96.636719 17.621094 96.644531 17.707031 96.644531 17.796875 C 96.652344 17.890625 96.660156 17.988281 96.660156 18.078125 C 96.660156 18.171875 96.660156 18.257812 96.660156 18.328125 L 96.675781 18.328125 C 96.757812 18.175781 96.851562 18.03125 96.957031 17.90625 C 97.058594 17.785156 97.175781 17.679688 97.300781 17.59375 C 97.433594 17.511719 97.585938 17.449219 97.753906 17.40625 C 97.929688 17.355469 98.132812 17.328125 98.363281 17.328125 C 98.652344 17.328125 98.902344 17.367188 99.113281 17.4375 C 99.328125 17.5 99.507812 17.613281 99.644531 17.765625 C 99.777344 17.914062 99.878906 18.105469 99.941406 18.34375 C 100 18.574219 100.035156 18.855469 100.035156 19.1875 L 100.035156 22.703125 Z M 102.238281 18.0625 L 102.238281 22.703125 L 101.363281 22.703125 L 101.363281 18.0625 L 100.613281 18.0625 L 100.613281 17.421875 L 101.363281 17.421875 L 101.363281 16.828125 C 101.363281 16.632812 101.378906 16.453125 101.410156 16.296875 C 101.4375 16.132812 101.503906 15.984375 101.597656 15.859375 C 101.699219 15.738281 101.835938 15.640625 102.003906 15.578125 C 102.167969 15.507812 102.382812 15.46875 102.644531 15.46875 C 102.746094 15.46875 102.855469 15.476562 102.972656 15.484375 C 103.085938 15.496094 103.183594 15.511719 103.269531 15.53125 L 103.269531 16.1875 C 103.207031 16.179688 103.136719 16.171875 103.066406 16.171875 C 102.992188 16.164062 102.929688 16.15625 102.878906 16.15625 C 102.742188 16.15625 102.632812 16.179688 102.550781 16.21875 C 102.464844 16.25 102.398438 16.304688 102.347656 16.375 C 102.304688 16.4375 102.273438 16.519531 102.253906 16.609375 C 102.242188 16.703125 102.238281 16.820312 102.238281 16.953125 L 102.238281 17.421875 L 103.269531 17.421875 L 103.269531 18.0625 Z M 108.273438 20.0625 C 108.273438 20.980469 108.066406 21.667969 107.664062 22.125 C 107.257812 22.574219 106.667969 22.796875 105.898438 22.796875 C 105.523438 22.796875 105.1875 22.742188 104.898438 22.640625 C 104.617188 22.527344 104.371094 22.355469 104.164062 22.125 C 103.964844 21.898438 103.8125 21.609375 103.710938 21.265625 C 103.605469 20.925781 103.554688 20.523438 103.554688 20.0625 C 103.554688 18.242188 104.339844 17.328125 105.914062 17.328125 C 106.328125 17.328125 106.683594 17.386719 106.976562 17.5 C 107.277344 17.605469 107.523438 17.773438 107.710938 18 C 107.90625 18.230469 108.046875 18.519531 108.132812 18.859375 C 108.222656 19.203125 108.273438 19.605469 108.273438 20.0625 Z M 107.351562 20.0625 C 107.351562 19.648438 107.316406 19.308594 107.257812 19.046875 C 107.195312 18.777344 107.097656 18.5625 106.976562 18.40625 C 106.851562 18.242188 106.699219 18.125 106.523438 18.0625 C 106.355469 18.003906 106.15625 17.96875 105.929688 17.96875 C 105.710938 17.96875 105.503906 18.007812 105.320312 18.078125 C 105.140625 18.140625 104.988281 18.257812 104.867188 18.421875 C 104.742188 18.578125 104.640625 18.792969 104.570312 19.0625 C 104.507812 19.324219 104.476562 19.660156 104.476562 20.0625 C 104.476562 20.46875 104.511719 20.808594 104.585938 21.078125 C 104.65625 21.351562 104.757812 21.566406 104.882812 21.71875 C 105.003906 21.875 105.152344 21.992188 105.320312 22.0625 C 105.496094 22.125 105.683594 22.15625 105.882812 22.15625 C 106.109375 22.15625 106.3125 22.125 106.492188 22.0625 C 106.675781 21.992188 106.835938 21.875 106.960938 21.71875 C 107.082031 21.566406 107.179688 21.351562 107.242188 21.078125 C 107.3125 20.808594 107.351562 20.46875 107.351562 20.0625 Z M 108.320312 24.6875 L 108.320312 24.0625 L 114.148438 24.0625 L 114.148438 24.6875 Z M 117.335938 16.578125 L 117.335938 22.703125 L 116.414062 22.703125 L 116.414062 16.578125 L 114.039062 16.578125 L 114.039062 15.828125 L 119.695312 15.828125 L 119.695312 16.578125 Z M 122.117188 22.703125 C 121.992188 23.023438 121.859375 23.3125 121.726562 23.5625 C 121.601562 23.820312 121.457031 24.039062 121.304688 24.21875 C 121.148438 24.394531 120.96875 24.53125 120.773438 24.625 C 120.574219 24.726562 120.347656 24.78125 120.101562 24.78125 C 119.984375 24.78125 119.878906 24.773438 119.789062 24.765625 C 119.695312 24.765625 119.59375 24.746094 119.492188 24.71875 L 119.492188 24.0625 C 119.550781 24.070312 119.621094 24.078125 119.695312 24.078125 C 119.777344 24.085938 119.84375 24.09375 119.898438 24.09375 C 120.15625 24.09375 120.398438 23.992188 120.617188 23.796875 C 120.832031 23.609375 121.027344 23.304688 121.195312 22.890625 L 121.289062 22.671875 L 119.195312 17.421875 L 120.132812 17.421875 L 121.242188 20.34375 C 121.269531 20.429688 121.3125 20.542969 121.367188 20.6875 C 121.417969 20.835938 121.464844 20.980469 121.507812 21.125 C 121.558594 21.273438 121.605469 21.410156 121.648438 21.53125 C 121.6875 21.648438 121.710938 21.722656 121.710938 21.75 C 121.71875 21.710938 121.746094 21.636719 121.789062 21.53125 C 121.828125 21.429688 121.871094 21.3125 121.914062 21.1875 C 121.964844 21.054688 122.011719 20.917969 122.054688 20.78125 C 122.105469 20.648438 122.148438 20.53125 122.179688 20.4375 L 123.210938 17.421875 L 124.148438 17.421875 Z M 129.105469 20.03125 C 129.105469 20.4375 129.070312 20.816406 129.011719 21.15625 C 128.949219 21.492188 128.835938 21.785156 128.683594 22.03125 C 128.535156 22.273438 128.335938 22.460938 128.089844 22.59375 C 127.839844 22.726562 127.53125 22.796875 127.167969 22.796875 C 126.78125 22.796875 126.445312 22.726562 126.167969 22.59375 C 125.886719 22.449219 125.671875 22.210938 125.527344 21.875 L 125.496094 21.875 C 125.496094 21.886719 125.496094 21.917969 125.496094 21.96875 C 125.503906 22.023438 125.511719 22.089844 125.511719 22.171875 C 125.511719 22.246094 125.511719 22.335938 125.511719 22.4375 C 125.511719 22.53125 125.511719 22.628906 125.511719 22.71875 L 125.511719 24.78125 L 124.636719 24.78125 L 124.636719 18.5 C 124.636719 18.378906 124.636719 18.257812 124.636719 18.140625 C 124.636719 18.019531 124.628906 17.90625 124.621094 17.8125 C 124.621094 17.722656 124.621094 17.640625 124.621094 17.578125 C 124.621094 17.507812 124.613281 17.453125 124.605469 17.421875 L 125.464844 17.421875 C 125.464844 17.433594 125.464844 17.472656 125.464844 17.53125 C 125.472656 17.585938 125.480469 17.652344 125.480469 17.734375 C 125.488281 17.820312 125.496094 17.910156 125.496094 18 C 125.503906 18.09375 125.511719 18.183594 125.511719 18.265625 L 125.527344 18.265625 C 125.609375 18.101562 125.703125 17.960938 125.808594 17.84375 C 125.910156 17.722656 126.027344 17.621094 126.152344 17.546875 C 126.285156 17.464844 126.4375 17.40625 126.605469 17.375 C 126.769531 17.347656 126.957031 17.328125 127.167969 17.328125 C 127.53125 17.328125 127.839844 17.398438 128.089844 17.53125 C 128.335938 17.65625 128.535156 17.839844 128.683594 18.078125 C 128.835938 18.308594 128.949219 18.589844 129.011719 18.921875 C 129.070312 19.257812 129.105469 19.628906 129.105469 20.03125 Z M 128.183594 20.0625 C 128.183594 19.730469 128.160156 19.4375 128.121094 19.1875 C 128.089844 18.941406 128.019531 18.726562 127.917969 18.546875 C 127.824219 18.371094 127.691406 18.234375 127.527344 18.140625 C 127.371094 18.050781 127.171875 18 126.933594 18 C 126.746094 18 126.5625 18.035156 126.386719 18.09375 C 126.207031 18.148438 126.054688 18.253906 125.933594 18.40625 C 125.808594 18.5625 125.703125 18.785156 125.621094 19.0625 C 125.546875 19.335938 125.511719 19.691406 125.511719 20.125 C 125.511719 20.5 125.542969 20.820312 125.605469 21.078125 C 125.664062 21.339844 125.753906 21.550781 125.871094 21.703125 C 125.992188 21.859375 126.144531 21.976562 126.324219 22.046875 C 126.5 22.121094 126.703125 22.15625 126.933594 22.15625 C 127.171875 22.15625 127.371094 22.109375 127.527344 22.015625 C 127.691406 21.925781 127.824219 21.789062 127.917969 21.609375 C 128.019531 21.425781 128.089844 21.199219 128.121094 20.9375 C 128.160156 20.679688 128.183594 20.386719 128.183594 20.0625 Z M 130.652344 20.25 C 130.652344 20.523438 130.675781 20.777344 130.730469 21.015625 C 130.789062 21.246094 130.878906 21.445312 130.996094 21.609375 C 131.117188 21.777344 131.277344 21.910156 131.464844 22 C 131.648438 22.09375 131.875 22.140625 132.136719 22.140625 C 132.507812 22.140625 132.8125 22.070312 133.042969 21.921875 C 133.269531 21.769531 133.425781 21.570312 133.511719 21.328125 L 134.277344 21.546875 C 134.222656 21.695312 134.144531 21.847656 134.042969 22 C 133.949219 22.148438 133.816406 22.285156 133.652344 22.40625 C 133.484375 22.523438 133.273438 22.617188 133.027344 22.6875 C 132.777344 22.757812 132.476562 22.796875 132.136719 22.796875 C 131.355469 22.796875 130.753906 22.570312 130.339844 22.109375 C 129.933594 21.644531 129.730469 20.949219 129.730469 20.03125 C 129.730469 19.535156 129.792969 19.109375 129.917969 18.765625 C 130.039062 18.425781 130.207031 18.148438 130.417969 17.9375 C 130.632812 17.722656 130.886719 17.5625 131.167969 17.46875 C 131.457031 17.378906 131.765625 17.328125 132.089844 17.328125 C 132.535156 17.328125 132.90625 17.402344 133.199219 17.546875 C 133.5 17.683594 133.738281 17.882812 133.917969 18.140625 C 134.101562 18.390625 134.234375 18.691406 134.308594 19.03125 C 134.390625 19.367188 134.433594 19.730469 134.433594 20.125 L 134.433594 20.25 Z M 133.511719 19.578125 C 133.46875 19.019531 133.328125 18.609375 133.089844 18.359375 C 132.859375 18.101562 132.523438 17.96875 132.089844 17.96875 C 131.933594 17.96875 131.773438 17.996094 131.621094 18.046875 C 131.464844 18.089844 131.3125 18.175781 131.167969 18.296875 C 131.03125 18.414062 130.914062 18.574219 130.824219 18.78125 C 130.730469 18.992188 130.675781 19.257812 130.667969 19.578125 Z M 133.511719 19.578125 "/>
<path style=" stroke:none;fill-rule:nonzero;fill:rgb(0%,0%,0%);fill-opacity:1;" d="M 76.089844 62.996094 L 76.089844 58.402344 C 76.089844 58.238281 76.089844 58.070312 76.089844 57.902344 C 76.097656 57.726562 76.105469 57.566406 76.105469 57.417969 C 76.113281 57.253906 76.125 57.089844 76.136719 56.933594 C 76.082031 57.101562 76.035156 57.269531 75.996094 57.433594 C 75.953125 57.570312 75.90625 57.722656 75.855469 57.886719 C 75.800781 58.042969 75.75 58.1875 75.699219 58.308594 L 73.917969 62.996094 L 73.277344 62.996094 L 71.464844 58.308594 C 71.441406 58.257812 71.421875 58.199219 71.402344 58.136719 C 71.378906 58.078125 71.359375 58.007812 71.339844 57.933594 C 71.316406 57.863281 71.289062 57.789062 71.261719 57.714844 C 71.238281 57.632812 71.21875 57.554688 71.199219 57.480469 C 71.136719 57.304688 71.078125 57.121094 71.027344 56.933594 C 71.035156 57.121094 71.042969 57.304688 71.042969 57.480469 C 71.050781 57.636719 71.058594 57.800781 71.058594 57.964844 C 71.066406 58.132812 71.074219 58.28125 71.074219 58.402344 L 71.074219 62.996094 L 70.246094 62.996094 L 70.246094 56.121094 L 71.464844 56.121094 L 73.292969 60.886719 C 73.3125 60.949219 73.339844 61.035156 73.371094 61.136719 C 73.410156 61.242188 73.441406 61.351562 73.464844 61.464844 C 73.492188 61.570312 73.519531 61.671875 73.542969 61.761719 C 73.570312 61.855469 73.59375 61.929688 73.605469 61.980469 C 73.613281 61.929688 73.628906 61.855469 73.652344 61.761719 C 73.679688 61.660156 73.714844 61.554688 73.746094 61.449219 C 73.773438 61.347656 73.808594 61.242188 73.839844 61.136719 C 73.878906 61.035156 73.910156 60.949219 73.933594 60.886719 L 75.730469 56.121094 L 76.933594 56.121094 L 76.933594 62.996094 Z M 78.769531 60.542969 C 78.769531 60.816406 78.792969 61.070312 78.847656 61.308594 C 78.90625 61.539062 78.996094 61.738281 79.113281 61.902344 C 79.234375 62.070312 79.394531 62.203125 79.582031 62.292969 C 79.765625 62.386719 79.992188 62.433594 80.253906 62.433594 C 80.625 62.433594 80.929688 62.363281 81.160156 62.214844 C 81.386719 62.0625 81.542969 61.863281 81.628906 61.621094 L 82.394531 61.839844 C 82.339844 61.988281 82.261719 62.140625 82.160156 62.292969 C 82.066406 62.441406 81.933594 62.578125 81.769531 62.699219 C 81.601562 62.816406 81.390625 62.910156 81.144531 62.980469 C 80.894531 63.050781 80.59375 63.089844 80.253906 63.089844 C 79.472656 63.089844 78.871094 62.863281 78.457031 62.402344 C 78.050781 61.9375 77.847656 61.242188 77.847656 60.324219 C 77.847656 59.828125 77.910156 59.402344 78.035156 59.058594 C 78.15625 58.71875 78.324219 58.441406 78.535156 58.230469 C 78.75 58.015625 79.003906 57.855469 79.285156 57.761719 C 79.574219 57.671875 79.882812 57.621094 80.207031 57.621094 C 80.652344 57.621094 81.023438 57.695312 81.316406 57.839844 C 81.617188 57.976562 81.855469 58.175781 82.035156 58.433594 C 82.21875 58.683594 82.351562 58.984375 82.425781 59.324219 C 82.507812 59.660156 82.550781 60.023438 82.550781 60.417969 L 82.550781 60.542969 Z M 81.628906 59.871094 C 81.585938 59.3125 81.445312 58.902344 81.207031 58.652344 C 80.976562 58.394531 80.640625 58.261719 80.207031 58.261719 C 80.050781 58.261719 79.890625 58.289062 79.738281 58.339844 C 79.582031 58.382812 79.429688 58.46875 79.285156 58.589844 C 79.148438 58.707031 79.03125 58.867188 78.941406 59.074219 C 78.847656 59.285156 78.792969 59.550781 78.785156 59.871094 Z M 85.472656 62.949219 C 85.335938 62.992188 85.199219 63.019531 85.066406 63.042969 C 84.929688 63.0625 84.765625 63.074219 84.582031 63.074219 C 83.882812 63.074219 83.535156 62.675781 83.535156 61.871094 L 83.535156 58.355469 L 82.925781 58.355469 L 82.925781 57.714844 L 83.566406 57.714844 L 83.832031 56.527344 L 84.410156 56.527344 L 84.410156 57.714844 L 85.394531 57.714844 L 85.394531 58.355469 L 84.410156 58.355469 L 84.410156 61.683594 C 84.410156 61.945312 84.449219 62.128906 84.535156 62.230469 C 84.617188 62.324219 84.761719 62.371094 84.972656 62.371094 C 85.054688 62.371094 85.132812 62.367188 85.207031 62.355469 C 85.289062 62.347656 85.378906 62.332031 85.472656 62.308594 Z M 87.449219 63.089844 C 86.917969 63.089844 86.515625 62.949219 86.246094 62.667969 C 85.984375 62.390625 85.855469 62.007812 85.855469 61.527344 C 85.855469 61.175781 85.921875 60.886719 86.058594 60.667969 C 86.191406 60.441406 86.363281 60.261719 86.574219 60.136719 C 86.78125 60.015625 87.019531 59.929688 87.292969 59.886719 C 87.570312 59.835938 87.855469 59.804688 88.136719 59.792969 L 89.324219 59.777344 L 89.324219 59.480469 C 89.324219 59.265625 89.296875 59.082031 89.246094 58.933594 C 89.203125 58.78125 89.132812 58.652344 89.042969 58.558594 C 88.949219 58.46875 88.828125 58.398438 88.683594 58.355469 C 88.546875 58.304688 88.382812 58.277344 88.199219 58.277344 C 88.019531 58.277344 87.863281 58.296875 87.730469 58.324219 C 87.59375 58.347656 87.472656 58.390625 87.371094 58.449219 C 87.277344 58.511719 87.195312 58.601562 87.136719 58.714844 C 87.074219 58.820312 87.03125 58.957031 87.011719 59.121094 L 86.089844 59.042969 C 86.117188 58.835938 86.183594 58.644531 86.277344 58.464844 C 86.367188 58.289062 86.5 58.136719 86.667969 58.011719 C 86.832031 57.890625 87.042969 57.792969 87.292969 57.730469 C 87.539062 57.660156 87.847656 57.621094 88.214844 57.621094 C 88.878906 57.621094 89.378906 57.773438 89.714844 58.074219 C 90.046875 58.378906 90.214844 58.816406 90.214844 59.386719 L 90.214844 61.667969 C 90.214844 61.929688 90.246094 62.128906 90.308594 62.261719 C 90.378906 62.386719 90.515625 62.449219 90.714844 62.449219 C 90.753906 62.449219 90.800781 62.449219 90.855469 62.449219 C 90.90625 62.441406 90.953125 62.429688 90.996094 62.417969 L 90.996094 62.964844 C 90.878906 62.996094 90.765625 63.015625 90.652344 63.027344 C 90.546875 63.035156 90.4375 63.042969 90.324219 63.042969 C 90.15625 63.042969 90.007812 63.019531 89.886719 62.980469 C 89.769531 62.941406 89.671875 62.871094 89.589844 62.777344 C 89.515625 62.6875 89.457031 62.574219 89.417969 62.449219 C 89.386719 62.316406 89.363281 62.160156 89.355469 61.980469 L 89.324219 61.980469 C 89.230469 62.160156 89.125 62.316406 89.011719 62.449219 C 88.894531 62.585938 88.765625 62.703125 88.621094 62.792969 C 88.472656 62.886719 88.300781 62.960938 88.105469 63.011719 C 87.917969 63.0625 87.695312 63.089844 87.449219 63.089844 Z M 87.652344 62.433594 C 87.929688 62.433594 88.175781 62.382812 88.386719 62.277344 C 88.59375 62.175781 88.765625 62.042969 88.902344 61.886719 C 89.046875 61.734375 89.152344 61.558594 89.214844 61.371094 C 89.285156 61.175781 89.324219 60.992188 89.324219 60.824219 L 89.324219 60.386719 L 88.371094 60.402344 C 88.152344 60.414062 87.941406 60.4375 87.746094 60.464844 C 87.558594 60.488281 87.390625 60.539062 87.246094 60.621094 C 87.097656 60.707031 86.976562 60.820312 86.886719 60.964844 C 86.800781 61.113281 86.761719 61.304688 86.761719 61.542969 C 86.761719 61.824219 86.839844 62.046875 86.996094 62.199219 C 87.148438 62.355469 87.371094 62.433594 87.652344 62.433594 Z M 91.449219 56.589844 L 91.449219 55.746094 L 92.324219 55.746094 L 92.324219 56.589844 Z M 91.449219 62.996094 L 91.449219 57.714844 L 92.324219 57.714844 L 92.324219 62.996094 Z M 96.945312 62.996094 L 96.945312 59.652344 C 96.945312 59.394531 96.921875 59.179688 96.882812 59.011719 C 96.851562 58.835938 96.785156 58.695312 96.695312 58.589844 C 96.609375 58.476562 96.5 58.398438 96.367188 58.355469 C 96.230469 58.316406 96.058594 58.292969 95.851562 58.292969 C 95.640625 58.292969 95.453125 58.332031 95.289062 58.402344 C 95.121094 58.476562 94.972656 58.585938 94.851562 58.730469 C 94.734375 58.867188 94.644531 59.039062 94.585938 59.246094 C 94.523438 59.445312 94.492188 59.675781 94.492188 59.933594 L 94.492188 62.996094 L 93.601562 62.996094 L 93.601562 58.839844 C 93.601562 58.726562 93.601562 58.613281 93.601562 58.496094 C 93.601562 58.375 93.59375 58.257812 93.585938 58.152344 C 93.585938 58.039062 93.585938 57.945312 93.585938 57.871094 C 93.585938 57.789062 93.585938 57.738281 93.585938 57.714844 L 94.414062 57.714844 C 94.414062 57.726562 94.414062 57.769531 94.414062 57.839844 C 94.421875 57.914062 94.429688 58 94.429688 58.089844 C 94.4375 58.183594 94.445312 58.28125 94.445312 58.371094 C 94.445312 58.464844 94.445312 58.550781 94.445312 58.621094 L 94.460938 58.621094 C 94.542969 58.46875 94.636719 58.324219 94.742188 58.199219 C 94.84375 58.078125 94.960938 57.972656 95.085938 57.886719 C 95.21875 57.804688 95.371094 57.742188 95.539062 57.699219 C 95.714844 57.648438 95.917969 57.621094 96.148438 57.621094 C 96.4375 57.621094 96.6875 57.660156 96.898438 57.730469 C 97.113281 57.792969 97.292969 57.90625 97.429688 58.058594 C 97.5625 58.207031 97.664062 58.398438 97.726562 58.636719 C 97.785156 58.867188 97.820312 59.148438 97.820312 59.480469 L 97.820312 62.996094 Z M 100.023438 58.355469 L 100.023438 62.996094 L 99.148438 62.996094 L 99.148438 58.355469 L 98.398438 58.355469 L 98.398438 57.714844 L 99.148438 57.714844 L 99.148438 57.121094 C 99.148438 56.925781 99.164062 56.746094 99.195312 56.589844 C 99.222656 56.425781 99.289062 56.277344 99.382812 56.152344 C 99.484375 56.03125 99.621094 55.933594 99.789062 55.871094 C 99.953125 55.800781 100.167969 55.761719 100.429688 55.761719 C 100.53125 55.761719 100.640625 55.769531 100.757812 55.777344 C 100.871094 55.789062 100.96875 55.804688 101.054688 55.824219 L 101.054688 56.480469 C 100.992188 56.472656 100.921875 56.464844 100.851562 56.464844 C 100.777344 56.457031 100.714844 56.449219 100.664062 56.449219 C 100.527344 56.449219 100.417969 56.472656 100.335938 56.511719 C 100.25 56.542969 100.183594 56.597656 100.132812 56.667969 C 100.089844 56.730469 100.058594 56.8125 100.039062 56.902344 C 100.027344 56.996094 100.023438 57.113281 100.023438 57.246094 L 100.023438 57.714844 L 101.054688 57.714844 L 101.054688 58.355469 Z M 106.058594 60.355469 C 106.058594 61.273438 105.851562 61.960938 105.449219 62.417969 C 105.042969 62.867188 104.453125 63.089844 103.683594 63.089844 C 103.308594 63.089844 102.972656 63.035156 102.683594 62.933594 C 102.402344 62.820312 102.15625 62.648438 101.949219 62.417969 C 101.75 62.191406 101.597656 61.902344 101.496094 61.558594 C 101.390625 61.21875 101.339844 60.816406 101.339844 60.355469 C 101.339844 58.535156 102.125 57.621094 103.699219 57.621094 C 104.113281 57.621094 104.46875 57.679688 104.761719 57.792969 C 105.0625 57.898438 105.308594 58.066406 105.496094 58.292969 C 105.691406 58.523438 105.832031 58.8125 105.917969 59.152344 C 106.007812 59.496094 106.058594 59.898438 106.058594 60.355469 Z M 105.136719 60.355469 C 105.136719 59.941406 105.101562 59.601562 105.042969 59.339844 C 104.980469 59.070312 104.882812 58.855469 104.761719 58.699219 C 104.636719 58.535156 104.484375 58.417969 104.308594 58.355469 C 104.140625 58.296875 103.941406 58.261719 103.714844 58.261719 C 103.496094 58.261719 103.289062 58.300781 103.105469 58.371094 C 102.925781 58.433594 102.773438 58.550781 102.652344 58.714844 C 102.527344 58.871094 102.425781 59.085938 102.355469 59.355469 C 102.292969 59.617188 102.261719 59.953125 102.261719 60.355469 C 102.261719 60.761719 102.296875 61.101562 102.371094 61.371094 C 102.441406 61.644531 102.542969 61.859375 102.667969 62.011719 C 102.789062 62.167969 102.9375 62.285156 103.105469 62.355469 C 103.28125 62.417969 103.46875 62.449219 103.667969 62.449219 C 103.894531 62.449219 104.097656 62.417969 104.277344 62.355469 C 104.460938 62.285156 104.621094 62.167969 104.746094 62.011719 C 104.867188 61.859375 104.964844 61.644531 105.027344 61.371094 C 105.097656 61.101562 105.136719 60.761719 105.136719 60.355469 Z M 106.105469 64.980469 L 106.105469 64.355469 L 111.933594 64.355469 L 111.933594 64.980469 Z M 117.746094 61.058594 C 117.746094 61.402344 117.675781 61.703125 117.542969 61.949219 C 117.40625 62.199219 117.222656 62.40625 116.996094 62.558594 C 116.765625 62.707031 116.492188 62.816406 116.183594 62.886719 C 115.878906 62.960938 115.554688 62.996094 115.214844 62.996094 L 112.433594 62.996094 L 112.433594 56.121094 L 114.933594 56.121094 C 115.304688 56.121094 115.644531 56.15625 115.949219 56.214844 C 116.25 56.277344 116.503906 56.378906 116.714844 56.511719 C 116.921875 56.648438 117.078125 56.820312 117.183594 57.027344 C 117.296875 57.238281 117.355469 57.492188 117.355469 57.792969 C 117.355469 57.980469 117.320312 58.160156 117.261719 58.324219 C 117.207031 58.492188 117.125 58.648438 117.011719 58.792969 C 116.90625 58.929688 116.769531 59.050781 116.605469 59.152344 C 116.449219 59.246094 116.257812 59.320312 116.042969 59.371094 C 116.3125 59.402344 116.550781 59.46875 116.761719 59.558594 C 116.976562 59.652344 117.160156 59.773438 117.308594 59.917969 C 117.453125 60.066406 117.5625 60.238281 117.636719 60.433594 C 117.707031 60.621094 117.746094 60.832031 117.746094 61.058594 Z M 116.417969 57.902344 C 116.417969 57.53125 116.285156 57.261719 116.027344 57.105469 C 115.777344 56.941406 115.410156 56.855469 114.933594 56.855469 L 113.355469 56.855469 L 113.355469 59.042969 L 114.933594 59.042969 C 115.203125 59.042969 115.433594 59.019531 115.621094 58.964844 C 115.804688 58.914062 115.957031 58.835938 116.074219 58.730469 C 116.195312 58.628906 116.285156 58.507812 116.339844 58.371094 C 116.390625 58.238281 116.417969 58.082031 116.417969 57.902344 Z M 116.808594 60.980469 C 116.808594 60.765625 116.765625 60.582031 116.683594 60.433594 C 116.609375 60.28125 116.492188 60.152344 116.339844 60.058594 C 116.191406 59.957031 116.007812 59.882812 115.792969 59.839844 C 115.582031 59.789062 115.347656 59.761719 115.089844 59.761719 L 113.355469 59.761719 L 113.355469 62.246094 L 115.167969 62.246094 C 115.40625 62.246094 115.625 62.230469 115.824219 62.199219 C 116.019531 62.160156 116.191406 62.089844 116.339844 61.996094 C 116.484375 61.894531 116.597656 61.761719 116.683594 61.605469 C 116.765625 61.441406 116.808594 61.230469 116.808594 60.980469 Z M 118.691406 62.996094 L 118.691406 55.746094 L 119.566406 55.746094 L 119.566406 62.996094 Z M 125.296875 60.355469 C 125.296875 61.273438 125.089844 61.960938 124.6875 62.417969 C 124.28125 62.867188 123.691406 63.089844 122.921875 63.089844 C 122.546875 63.089844 122.210938 63.035156 121.921875 62.933594 C 121.640625 62.820312 121.394531 62.648438 121.1875 62.417969 C 120.988281 62.191406 120.835938 61.902344 120.734375 61.558594 C 120.628906 61.21875 120.578125 60.816406 120.578125 60.355469 C 120.578125 58.535156 121.363281 57.621094 122.9375 57.621094 C 123.351562 57.621094 123.707031 57.679688 124 57.792969 C 124.300781 57.898438 124.546875 58.066406 124.734375 58.292969 C 124.929688 58.523438 125.070312 58.8125 125.15625 59.152344 C 125.246094 59.496094 125.296875 59.898438 125.296875 60.355469 Z M 124.375 60.355469 C 124.375 59.941406 124.339844 59.601562 124.28125 59.339844 C 124.21875 59.070312 124.121094 58.855469 124 58.699219 C 123.875 58.535156 123.722656 58.417969 123.546875 58.355469 C 123.378906 58.296875 123.179688 58.261719 122.953125 58.261719 C 122.734375 58.261719 122.527344 58.300781 122.34375 58.371094 C 122.164062 58.433594 122.011719 58.550781 121.890625 58.714844 C 121.765625 58.871094 121.664062 59.085938 121.59375 59.355469 C 121.53125 59.617188 121.5 59.953125 121.5 60.355469 C 121.5 60.761719 121.535156 61.101562 121.609375 61.371094 C 121.679688 61.644531 121.78125 61.859375 121.90625 62.011719 C 122.027344 62.167969 122.175781 62.285156 122.34375 62.355469 C 122.519531 62.417969 122.707031 62.449219 122.90625 62.449219 C 123.132812 62.449219 123.335938 62.417969 123.515625 62.355469 C 123.699219 62.285156 123.859375 62.167969 123.984375 62.011719 C 124.105469 61.859375 124.203125 61.644531 124.265625 61.371094 C 124.335938 61.101562 124.375 60.761719 124.375 60.355469 Z M 126.84375 60.324219 C 126.84375 60.628906 126.863281 60.910156 126.90625 61.167969 C 126.945312 61.417969 127.019531 61.640625 127.125 61.824219 C 127.226562 62.003906 127.363281 62.144531 127.53125 62.246094 C 127.707031 62.351562 127.921875 62.402344 128.171875 62.402344 C 128.480469 62.402344 128.742188 62.320312 128.953125 62.152344 C 129.167969 61.976562 129.300781 61.714844 129.34375 61.371094 L 130.234375 61.417969 C 130.203125 61.636719 130.136719 61.851562 130.046875 62.058594 C 129.953125 62.257812 129.816406 62.4375 129.640625 62.589844 C 129.472656 62.738281 129.269531 62.859375 129.03125 62.949219 C 128.789062 63.039062 128.511719 63.089844 128.203125 63.089844 C 127.785156 63.089844 127.429688 63.019531 127.140625 62.886719 C 126.859375 62.742188 126.621094 62.550781 126.4375 62.308594 C 126.257812 62.0625 126.128906 61.769531 126.046875 61.433594 C 125.960938 61.101562 125.921875 60.742188 125.921875 60.355469 C 125.921875 60.003906 125.945312 59.691406 126 59.417969 C 126.058594 59.140625 126.144531 58.898438 126.25 58.699219 C 126.363281 58.492188 126.488281 58.320312 126.625 58.183594 C 126.769531 58.050781 126.925781 57.941406 127.09375 57.855469 C 127.257812 57.773438 127.4375 57.714844 127.625 57.683594 C 127.808594 57.644531 128 57.621094 128.1875 57.621094 C 128.488281 57.621094 128.753906 57.664062 128.984375 57.746094 C 129.210938 57.820312 129.410156 57.929688 129.578125 58.074219 C 129.742188 58.210938 129.878906 58.378906 129.984375 58.574219 C 130.085938 58.761719 130.160156 58.972656 130.203125 59.199219 L 129.296875 59.261719 C 129.253906 58.972656 129.136719 58.742188 128.953125 58.574219 C 128.765625 58.398438 128.503906 58.308594 128.171875 58.308594 C 127.921875 58.308594 127.707031 58.351562 127.53125 58.433594 C 127.363281 58.519531 127.226562 58.644531 127.125 58.808594 C 127.019531 58.976562 126.945312 59.191406 126.90625 59.449219 C 126.863281 59.699219 126.84375 59.992188 126.84375 60.324219 Z M 134.285156 62.996094 L 132.503906 60.589844 L 131.847656 61.121094 L 131.847656 62.996094 L 130.972656 62.996094 L 130.972656 55.746094 L 131.847656 55.746094 L 131.847656 60.277344 L 134.175781 57.714844 L 135.207031 57.714844 L 133.066406 59.980469 L 135.316406 62.996094 Z M 134.285156 62.996094 "/>
<path style=" stroke:none;fill-rule:nonzero;fill:rgb(0%,0%,0%);fill-opacity:1;" d="M 4.757812 4.796875 C 4.757812 5.121094 4.703125 5.410156 4.601562 5.65625 C 4.496094 5.898438 4.34375 6.105469 4.148438 6.28125 C 3.949219 6.449219 3.703125 6.582031 3.414062 6.671875 C 3.121094 6.753906 2.785156 6.796875 2.414062 6.796875 C 1.996094 6.796875 1.640625 6.742188 1.351562 6.640625 C 1.058594 6.539062 0.8125 6.398438 0.617188 6.21875 C 0.429688 6.042969 0.285156 5.84375 0.195312 5.625 C 0.101562 5.410156 0.0351562 5.179688 0.0078125 4.9375 L 0.929688 4.859375 C 0.949219 5.039062 0.992188 5.207031 1.054688 5.359375 C 1.125 5.507812 1.226562 5.632812 1.351562 5.734375 C 1.472656 5.839844 1.621094 5.925781 1.789062 5.984375 C 1.964844 6.046875 2.171875 6.078125 2.414062 6.078125 C 2.859375 6.078125 3.210938 5.96875 3.460938 5.75 C 3.707031 5.535156 3.835938 5.210938 3.835938 4.78125 C 3.835938 4.523438 3.777344 4.3125 3.664062 4.15625 C 3.558594 4.003906 3.421875 3.882812 3.257812 3.796875 C 3.089844 3.714844 2.90625 3.65625 2.710938 3.625 C 2.511719 3.597656 2.328125 3.578125 2.164062 3.578125 L 1.664062 3.578125 L 1.664062 2.828125 L 2.148438 2.828125 C 2.3125 2.828125 2.484375 2.8125 2.664062 2.78125 C 2.839844 2.742188 3 2.679688 3.148438 2.59375 C 3.292969 2.503906 3.414062 2.375 3.507812 2.21875 C 3.609375 2.066406 3.664062 1.871094 3.664062 1.640625 C 3.664062 1.269531 3.550781 0.976562 3.335938 0.765625 C 3.117188 0.550781 2.792969 0.4375 2.367188 0.4375 C 1.980469 0.4375 1.667969 0.539062 1.429688 0.734375 C 1.1875 0.933594 1.046875 1.214844 1.007812 1.578125 L 0.132812 1.515625 C 0.160156 1.214844 0.242188 0.953125 0.367188 0.734375 C 0.5 0.507812 0.667969 0.320312 0.867188 0.171875 C 1.074219 0.0195312 1.304688 -0.0976562 1.554688 -0.171875 C 1.8125 -0.242188 2.089844 -0.28125 2.382812 -0.28125 C 2.765625 -0.28125 3.09375 -0.226562 3.367188 -0.125 C 3.644531 -0.03125 3.875 0.101562 4.054688 0.265625 C 4.230469 0.421875 4.359375 0.617188 4.445312 0.84375 C 4.527344 1.0625 4.570312 1.300781 4.570312 1.546875 C 4.570312 1.746094 4.535156 1.933594 4.476562 2.109375 C 4.421875 2.289062 4.339844 2.449219 4.226562 2.59375 C 4.109375 2.730469 3.957031 2.851562 3.773438 2.953125 C 3.59375 3.046875 3.375 3.121094 3.117188 3.171875 L 3.117188 3.1875 C 3.394531 3.21875 3.636719 3.289062 3.835938 3.390625 C 4.042969 3.484375 4.214844 3.605469 4.351562 3.75 C 4.484375 3.886719 4.585938 4.050781 4.648438 4.234375 C 4.71875 4.414062 4.757812 4.601562 4.757812 4.796875 Z M 5.742188 6.703125 L 5.742188 5.953125 L 7.492188 5.953125 L 7.492188 0.65625 L 5.945312 1.765625 L 5.945312 0.9375 L 7.570312 -0.171875 L 8.382812 -0.171875 L 8.382812 5.953125 L 10.054688 5.953125 L 10.054688 6.703125 Z M 5.742188 6.703125 "/>
<path style=" stroke:none;fill-rule:nonzero;fill:rgb(0%,0%,0%);fill-opacity:1;" d="M 204.804688 3.265625 C 204.804688 3.921875 204.738281 4.480469 204.617188 4.9375 C 204.492188 5.386719 204.316406 5.753906 204.101562 6.03125 C 203.882812 6.304688 203.625 6.503906 203.335938 6.625 C 203.042969 6.738281 202.730469 6.796875 202.398438 6.796875 C 202.0625 6.796875 201.75 6.738281 201.460938 6.625 C 201.167969 6.503906 200.910156 6.304688 200.695312 6.03125 C 200.484375 5.753906 200.316406 5.386719 200.195312 4.9375 C 200.078125 4.480469 200.023438 3.921875 200.023438 3.265625 C 200.023438 2.570312 200.078125 1.996094 200.195312 1.546875 C 200.316406 1.089844 200.492188 0.726562 200.710938 0.453125 C 200.925781 0.183594 201.183594 -0.00390625 201.476562 -0.109375 C 201.765625 -0.222656 202.085938 -0.28125 202.429688 -0.28125 C 202.761719 -0.28125 203.070312 -0.222656 203.351562 -0.109375 C 203.640625 -0.00390625 203.890625 0.183594 204.101562 0.453125 C 204.316406 0.726562 204.492188 1.089844 204.617188 1.546875 C 204.738281 1.996094 204.804688 2.570312 204.804688 3.265625 Z M 203.914062 3.265625 C 203.914062 2.714844 203.875 2.257812 203.804688 1.890625 C 203.742188 1.527344 203.644531 1.242188 203.523438 1.03125 C 203.398438 0.816406 203.238281 0.664062 203.054688 0.578125 C 202.875 0.488281 202.667969 0.4375 202.429688 0.4375 C 202.179688 0.4375 201.957031 0.488281 201.773438 0.578125 C 201.585938 0.664062 201.421875 0.816406 201.289062 1.03125 C 201.164062 1.25 201.066406 1.542969 201.007812 1.90625 C 200.945312 2.261719 200.914062 2.714844 200.914062 3.265625 C 200.914062 3.789062 200.945312 4.230469 201.007812 4.59375 C 201.078125 4.960938 201.179688 5.253906 201.304688 5.46875 C 201.425781 5.6875 201.585938 5.847656 201.773438 5.9375 C 201.957031 6.03125 202.171875 6.078125 202.414062 6.078125 C 202.640625 6.078125 202.851562 6.03125 203.039062 5.9375 C 203.222656 5.847656 203.382812 5.6875 203.507812 5.46875 C 203.628906 5.253906 203.730469 4.960938 203.804688 4.59375 C 203.875 4.230469 203.914062 3.789062 203.914062 3.265625 Z M 203.914062 3.265625 "/>
</g>
</svg>
