<?xml version="1.0" encoding="UTF-8"?>
<svg xmlns="http://www.w3.org/2000/svg" xmlns:xlink="http://www.w3.org/1999/xlink" width="193.350006pt" height="17.325001pt" viewBox="0 0 193.350006 17.325001" version="1.1">
<g id="surface1">
<path style="fill-rule:nonzero;fill:rgb(0.392151%,60.783386%,100%);fill-opacity:0.627451;stroke-width:1.3264;stroke-linecap:butt;stroke-linejoin:miter;stroke:rgb(0%,0%,0%);stroke-opacity:1;stroke-miterlimit:4;" d="M 0.675781 0.664062 L 76.675781 0.664062 L 76.675781 16.664062 L 0.675781 16.664062 Z M 0.675781 0.664062 "/>
<path style="fill-rule:nonzero;fill:rgb(0.392151%,60.783386%,100%);fill-opacity:0.627451;stroke-width:1.3264;stroke-linecap:butt;stroke-linejoin:miter;stroke:rgb(0%,0%,0%);stroke-opacity:1;stroke-miterlimit:4;" d="M 132.675781 0.664062 L 192.675781 0.664062 L 192.675781 16.664062 L 132.675781 16.664062 Z M 132.675781 0.664062 "/>
<path style="fill-rule:nonzero;fill:rgb(0.392151%,60.783386%,100%);fill-opacity:0.627451;stroke-width:1.3264;stroke-linecap:butt;stroke-linejoin:miter;stroke:rgb(0%,0%,0%);stroke-opacity:1;stroke-miterlimit:4;" d="M 76.675781 0.664062 L 132.675781 0.664062 L 132.675781 16.664062 L 76.675781 16.664062 Z M 76.675781 0.664062 "/>
<path style=" stroke:none;fill-rule:nonzero;fill:rgb(0%,0%,0%);fill-opacity:1;" d="M 10.363281 12.664062 L 8.566406 9.804688 L 6.425781 9.804688 L 6.425781 12.664062 L 5.503906 12.664062 L 5.503906 5.789062 L 8.738281 5.789062 C 9.121094 5.789062 9.464844 5.839844 9.769531 5.929688 C 10.070312 6.015625 10.320312 6.140625 10.519531 6.304688 C 10.726562 6.472656 10.882812 6.683594 10.988281 6.929688 C 11.101562 7.171875 11.160156 7.449219 11.160156 7.757812 C 11.160156 7.976562 11.125 8.191406 11.066406 8.398438 C 11.003906 8.609375 10.902344 8.800781 10.769531 8.976562 C 10.632812 9.15625 10.453125 9.308594 10.238281 9.429688 C 10.027344 9.554688 9.777344 9.644531 9.488281 9.695312 L 11.441406 12.664062 Z M 10.222656 7.757812 C 10.222656 7.550781 10.183594 7.375 10.113281 7.226562 C 10.039062 7.074219 9.933594 6.941406 9.800781 6.835938 C 9.664062 6.734375 9.496094 6.65625 9.300781 6.601562 C 9.113281 6.550781 8.890625 6.523438 8.644531 6.523438 L 6.425781 6.523438 L 6.425781 9.070312 L 8.675781 9.070312 C 8.945312 9.070312 9.175781 9.039062 9.363281 8.976562 C 9.558594 8.90625 9.722656 8.8125 9.847656 8.695312 C 9.96875 8.582031 10.066406 8.445312 10.128906 8.289062 C 10.1875 8.125 10.222656 7.945312 10.222656 7.757812 Z M 12.957031 10.210938 C 12.957031 10.484375 12.980469 10.738281 13.035156 10.976562 C 13.09375 11.207031 13.183594 11.40625 13.300781 11.570312 C 13.421875 11.738281 13.582031 11.871094 13.769531 11.960938 C 13.953125 12.054688 14.179688 12.101562 14.441406 12.101562 C 14.8125 12.101562 15.117188 12.03125 15.347656 11.882812 C 15.574219 11.730469 15.730469 11.53125 15.816406 11.289062 L 16.582031 11.507812 C 16.527344 11.65625 16.449219 11.808594 16.347656 11.960938 C 16.253906 12.109375 16.121094 12.246094 15.957031 12.367188 C 15.789062 12.484375 15.578125 12.578125 15.332031 12.648438 C 15.082031 12.71875 14.78125 12.757812 14.441406 12.757812 C 13.660156 12.757812 13.058594 12.53125 12.644531 12.070312 C 12.238281 11.605469 12.035156 10.910156 12.035156 9.992188 C 12.035156 9.496094 12.097656 9.070312 12.222656 8.726562 C 12.34375 8.386719 12.511719 8.109375 12.722656 7.898438 C 12.9375 7.683594 13.191406 7.523438 13.472656 7.429688 C 13.761719 7.339844 14.070312 7.289062 14.394531 7.289062 C 14.839844 7.289062 15.210938 7.363281 15.503906 7.507812 C 15.804688 7.644531 16.042969 7.84375 16.222656 8.101562 C 16.40625 8.351562 16.539062 8.652344 16.613281 8.992188 C 16.695312 9.328125 16.738281 9.691406 16.738281 10.085938 L 16.738281 10.210938 Z M 15.816406 9.539062 C 15.773438 8.980469 15.632812 8.570312 15.394531 8.320312 C 15.164062 8.0625 14.828125 7.929688 14.394531 7.929688 C 14.238281 7.929688 14.078125 7.957031 13.925781 8.007812 C 13.769531 8.050781 13.617188 8.136719 13.472656 8.257812 C 13.335938 8.375 13.21875 8.535156 13.128906 8.742188 C 13.035156 8.953125 12.980469 9.21875 12.972656 9.539062 Z M 21.597656 11.210938 C 21.597656 11.453125 21.542969 11.671875 21.441406 11.867188 C 21.347656 12.054688 21.203125 12.21875 21.019531 12.351562 C 20.839844 12.488281 20.621094 12.59375 20.363281 12.664062 C 20.101562 12.722656 19.796875 12.757812 19.457031 12.757812 C 19.144531 12.757812 18.859375 12.730469 18.613281 12.679688 C 18.371094 12.640625 18.15625 12.566406 17.972656 12.460938 C 17.792969 12.359375 17.636719 12.222656 17.503906 12.054688 C 17.378906 11.878906 17.289062 11.671875 17.238281 11.429688 L 18.019531 11.273438 C 18.089844 11.554688 18.242188 11.765625 18.472656 11.898438 C 18.710938 12.023438 19.039062 12.085938 19.457031 12.085938 C 19.640625 12.085938 19.816406 12.078125 19.972656 12.054688 C 20.125 12.027344 20.261719 11.976562 20.378906 11.914062 C 20.492188 11.855469 20.582031 11.769531 20.644531 11.664062 C 20.703125 11.5625 20.738281 11.429688 20.738281 11.273438 C 20.738281 11.121094 20.699219 10.988281 20.628906 10.882812 C 20.554688 10.78125 20.449219 10.695312 20.316406 10.632812 C 20.179688 10.5625 20.015625 10.5 19.832031 10.445312 C 19.644531 10.394531 19.433594 10.335938 19.207031 10.273438 C 18.988281 10.222656 18.773438 10.164062 18.566406 10.101562 C 18.355469 10.03125 18.167969 9.9375 18.003906 9.820312 C 17.835938 9.707031 17.699219 9.566406 17.597656 9.398438 C 17.492188 9.234375 17.441406 9.023438 17.441406 8.773438 C 17.441406 8.296875 17.613281 7.929688 17.957031 7.679688 C 18.296875 7.433594 18.800781 7.304688 19.457031 7.304688 C 20.039062 7.304688 20.503906 7.410156 20.847656 7.617188 C 21.1875 7.816406 21.410156 8.140625 21.503906 8.585938 L 20.707031 8.695312 C 20.683594 8.550781 20.632812 8.4375 20.550781 8.351562 C 20.476562 8.261719 20.382812 8.1875 20.269531 8.132812 C 20.152344 8.074219 20.027344 8.03125 19.894531 8.007812 C 19.757812 7.980469 19.609375 7.960938 19.457031 7.960938 C 19.058594 7.960938 18.765625 8.027344 18.582031 8.148438 C 18.394531 8.265625 18.300781 8.449219 18.300781 8.695312 C 18.300781 8.832031 18.332031 8.949219 18.394531 9.039062 C 18.464844 9.132812 18.566406 9.214844 18.691406 9.273438 C 18.8125 9.335938 18.964844 9.394531 19.144531 9.445312 C 19.320312 9.488281 19.519531 9.535156 19.738281 9.585938 C 19.871094 9.628906 20.011719 9.671875 20.160156 9.710938 C 20.304688 9.753906 20.445312 9.808594 20.582031 9.867188 C 20.726562 9.921875 20.855469 9.984375 20.972656 10.054688 C 21.09375 10.128906 21.207031 10.222656 21.300781 10.335938 C 21.390625 10.441406 21.464844 10.566406 21.519531 10.710938 C 21.570312 10.847656 21.597656 11.015625 21.597656 11.210938 Z M 23.101562 10.210938 C 23.101562 10.484375 23.125 10.738281 23.179688 10.976562 C 23.238281 11.207031 23.328125 11.40625 23.445312 11.570312 C 23.566406 11.738281 23.726562 11.871094 23.914062 11.960938 C 24.097656 12.054688 24.324219 12.101562 24.585938 12.101562 C 24.957031 12.101562 25.261719 12.03125 25.492188 11.882812 C 25.71875 11.730469 25.875 11.53125 25.960938 11.289062 L 26.726562 11.507812 C 26.671875 11.65625 26.59375 11.808594 26.492188 11.960938 C 26.398438 12.109375 26.265625 12.246094 26.101562 12.367188 C 25.933594 12.484375 25.722656 12.578125 25.476562 12.648438 C 25.226562 12.71875 24.925781 12.757812 24.585938 12.757812 C 23.804688 12.757812 23.203125 12.53125 22.789062 12.070312 C 22.382812 11.605469 22.179688 10.910156 22.179688 9.992188 C 22.179688 9.496094 22.242188 9.070312 22.367188 8.726562 C 22.488281 8.386719 22.65625 8.109375 22.867188 7.898438 C 23.082031 7.683594 23.335938 7.523438 23.617188 7.429688 C 23.90625 7.339844 24.214844 7.289062 24.539062 7.289062 C 24.984375 7.289062 25.355469 7.363281 25.648438 7.507812 C 25.949219 7.644531 26.1875 7.84375 26.367188 8.101562 C 26.550781 8.351562 26.683594 8.652344 26.757812 8.992188 C 26.839844 9.328125 26.882812 9.691406 26.882812 10.085938 L 26.882812 10.210938 Z M 25.960938 9.539062 C 25.917969 8.980469 25.777344 8.570312 25.539062 8.320312 C 25.308594 8.0625 24.972656 7.929688 24.539062 7.929688 C 24.382812 7.929688 24.222656 7.957031 24.070312 8.007812 C 23.914062 8.050781 23.761719 8.136719 23.617188 8.257812 C 23.480469 8.375 23.363281 8.535156 23.273438 8.742188 C 23.179688 8.953125 23.125 9.21875 23.117188 9.539062 Z M 27.789062 12.664062 L 27.789062 8.617188 C 27.789062 8.503906 27.789062 8.390625 27.789062 8.273438 C 27.789062 8.160156 27.78125 8.050781 27.773438 7.945312 C 27.773438 7.832031 27.773438 7.726562 27.773438 7.632812 C 27.773438 7.542969 27.773438 7.457031 27.773438 7.382812 L 28.601562 7.382812 C 28.601562 7.457031 28.601562 7.542969 28.601562 7.632812 C 28.609375 7.726562 28.617188 7.828125 28.617188 7.929688 C 28.625 8.035156 28.632812 8.136719 28.632812 8.226562 C 28.632812 8.320312 28.632812 8.402344 28.632812 8.460938 L 28.648438 8.460938 C 28.707031 8.265625 28.777344 8.09375 28.851562 7.945312 C 28.921875 7.792969 29.007812 7.664062 29.101562 7.570312 C 29.191406 7.480469 29.304688 7.410156 29.429688 7.367188 C 29.5625 7.316406 29.726562 7.289062 29.914062 7.289062 C 29.984375 7.289062 30.054688 7.296875 30.117188 7.304688 C 30.175781 7.316406 30.230469 7.328125 30.273438 7.335938 L 30.273438 8.132812 C 30.210938 8.125 30.136719 8.113281 30.054688 8.101562 C 29.980469 8.09375 29.894531 8.085938 29.804688 8.085938 C 29.59375 8.085938 29.417969 8.136719 29.273438 8.226562 C 29.136719 8.320312 29.019531 8.453125 28.929688 8.617188 C 28.84375 8.773438 28.78125 8.964844 28.742188 9.179688 C 28.699219 9.398438 28.679688 9.644531 28.679688 9.914062 L 28.679688 12.664062 Z M 33.304688 12.664062 L 32.257812 12.664062 L 30.335938 7.382812 L 31.273438 7.382812 L 32.445312 10.820312 C 32.464844 10.894531 32.492188 10.984375 32.523438 11.085938 C 32.550781 11.179688 32.585938 11.285156 32.617188 11.398438 C 32.644531 11.515625 32.671875 11.625 32.695312 11.726562 C 32.722656 11.820312 32.75 11.90625 32.773438 11.976562 C 32.792969 11.90625 32.820312 11.820312 32.851562 11.726562 C 32.878906 11.625 32.914062 11.519531 32.945312 11.414062 C 32.972656 11.300781 33.007812 11.191406 33.039062 11.085938 C 33.078125 10.984375 33.109375 10.894531 33.132812 10.820312 L 34.335938 7.382812 L 35.273438 7.382812 Z M 36.449219 10.210938 C 36.449219 10.484375 36.472656 10.738281 36.527344 10.976562 C 36.585938 11.207031 36.675781 11.40625 36.792969 11.570312 C 36.914062 11.738281 37.074219 11.871094 37.261719 11.960938 C 37.445312 12.054688 37.671875 12.101562 37.933594 12.101562 C 38.304688 12.101562 38.609375 12.03125 38.839844 11.882812 C 39.066406 11.730469 39.222656 11.53125 39.308594 11.289062 L 40.074219 11.507812 C 40.019531 11.65625 39.941406 11.808594 39.839844 11.960938 C 39.746094 12.109375 39.613281 12.246094 39.449219 12.367188 C 39.28125 12.484375 39.070312 12.578125 38.824219 12.648438 C 38.574219 12.71875 38.273438 12.757812 37.933594 12.757812 C 37.152344 12.757812 36.550781 12.53125 36.136719 12.070312 C 35.730469 11.605469 35.527344 10.910156 35.527344 9.992188 C 35.527344 9.496094 35.589844 9.070312 35.714844 8.726562 C 35.835938 8.386719 36.003906 8.109375 36.214844 7.898438 C 36.429688 7.683594 36.683594 7.523438 36.964844 7.429688 C 37.253906 7.339844 37.5625 7.289062 37.886719 7.289062 C 38.332031 7.289062 38.703125 7.363281 38.996094 7.507812 C 39.296875 7.644531 39.535156 7.84375 39.714844 8.101562 C 39.898438 8.351562 40.03125 8.652344 40.105469 8.992188 C 40.1875 9.328125 40.230469 9.691406 40.230469 10.085938 L 40.230469 10.210938 Z M 39.308594 9.539062 C 39.265625 8.980469 39.125 8.570312 38.886719 8.320312 C 38.65625 8.0625 38.320312 7.929688 37.886719 7.929688 C 37.730469 7.929688 37.570312 7.957031 37.417969 8.007812 C 37.261719 8.050781 37.109375 8.136719 36.964844 8.257812 C 36.828125 8.375 36.710938 8.535156 36.621094 8.742188 C 36.527344 8.953125 36.472656 9.21875 36.464844 9.539062 Z M 44.464844 11.820312 C 44.296875 12.15625 44.078125 12.394531 43.808594 12.539062 C 43.535156 12.683594 43.203125 12.757812 42.808594 12.757812 C 42.140625 12.757812 41.648438 12.535156 41.339844 12.085938 C 41.027344 11.640625 40.871094 10.957031 40.871094 10.039062 C 40.871094 8.207031 41.515625 7.289062 42.808594 7.289062 C 43.210938 7.289062 43.546875 7.363281 43.808594 7.507812 C 44.078125 7.65625 44.296875 7.886719 44.464844 8.195312 C 44.464844 8.167969 44.464844 8.117188 44.464844 8.054688 C 44.464844 7.984375 44.464844 7.910156 44.464844 7.835938 C 44.464844 7.753906 44.464844 7.679688 44.464844 7.617188 C 44.464844 7.546875 44.464844 7.492188 44.464844 7.460938 L 44.464844 5.414062 L 45.339844 5.414062 L 45.339844 11.570312 C 45.339844 11.695312 45.339844 11.824219 45.339844 11.945312 C 45.339844 12.0625 45.339844 12.171875 45.339844 12.273438 C 45.347656 12.367188 45.355469 12.453125 45.355469 12.523438 C 45.355469 12.585938 45.359375 12.636719 45.371094 12.664062 L 44.527344 12.664062 C 44.515625 12.636719 44.503906 12.585938 44.496094 12.523438 C 44.496094 12.464844 44.488281 12.394531 44.480469 12.320312 C 44.480469 12.238281 44.480469 12.15625 44.480469 12.070312 C 44.480469 11.988281 44.480469 11.90625 44.480469 11.820312 Z M 41.792969 10.023438 C 41.792969 10.390625 41.8125 10.703125 41.855469 10.960938 C 41.90625 11.222656 41.980469 11.4375 42.074219 11.601562 C 42.175781 11.769531 42.308594 11.894531 42.464844 11.976562 C 42.617188 12.050781 42.8125 12.085938 43.042969 12.085938 C 43.269531 12.085938 43.472656 12.050781 43.652344 11.976562 C 43.828125 11.894531 43.972656 11.769531 44.089844 11.601562 C 44.210938 11.4375 44.308594 11.21875 44.371094 10.945312 C 44.429688 10.675781 44.464844 10.347656 44.464844 9.960938 C 44.464844 9.589844 44.429688 9.269531 44.371094 9.007812 C 44.308594 8.75 44.210938 8.539062 44.089844 8.382812 C 43.972656 8.230469 43.828125 8.113281 43.652344 8.039062 C 43.472656 7.96875 43.269531 7.929688 43.042969 7.929688 C 42.832031 7.929688 42.648438 7.972656 42.496094 8.054688 C 42.339844 8.128906 42.207031 8.25 42.105469 8.414062 C 42 8.570312 41.921875 8.785156 41.871094 9.054688 C 41.816406 9.316406 41.792969 9.640625 41.792969 10.023438 Z M 49.082031 10.070312 C 49.082031 9.613281 49.113281 9.179688 49.175781 8.773438 C 49.246094 8.359375 49.355469 7.960938 49.503906 7.585938 C 49.648438 7.203125 49.835938 6.832031 50.066406 6.476562 C 50.292969 6.113281 50.566406 5.757812 50.878906 5.414062 L 51.722656 5.414062 C 51.417969 5.757812 51.152344 6.113281 50.925781 6.476562 C 50.707031 6.832031 50.523438 7.203125 50.378906 7.585938 C 50.242188 7.972656 50.136719 8.375 50.066406 8.789062 C 49.992188 9.195312 49.957031 9.625 49.957031 10.070312 C 49.957031 10.53125 49.992188 10.96875 50.066406 11.382812 C 50.136719 11.789062 50.242188 12.1875 50.378906 12.570312 C 50.523438 12.953125 50.707031 13.324219 50.925781 13.679688 C 51.152344 14.042969 51.417969 14.398438 51.722656 14.742188 L 50.878906 14.742188 C 50.566406 14.398438 50.292969 14.042969 50.066406 13.679688 C 49.835938 13.324219 49.648438 12.957031 49.503906 12.585938 C 49.355469 12.203125 49.246094 11.804688 49.175781 11.398438 C 49.113281 10.984375 49.082031 10.546875 49.082031 10.085938 Z M 52.164062 12.664062 L 52.164062 12.039062 C 52.328125 11.667969 52.53125 11.332031 52.773438 11.039062 C 53.011719 10.75 53.261719 10.484375 53.523438 10.242188 C 53.792969 10.003906 54.054688 9.785156 54.304688 9.585938 C 54.5625 9.390625 54.796875 9.191406 55.007812 8.992188 C 55.214844 8.785156 55.382812 8.570312 55.507812 8.351562 C 55.640625 8.125 55.710938 7.875 55.710938 7.601562 C 55.710938 7.40625 55.675781 7.234375 55.617188 7.085938 C 55.5625 6.933594 55.480469 6.804688 55.367188 6.710938 C 55.261719 6.609375 55.128906 6.53125 54.976562 6.476562 C 54.820312 6.425781 54.644531 6.398438 54.460938 6.398438 C 54.28125 6.398438 54.113281 6.425781 53.960938 6.476562 C 53.804688 6.53125 53.660156 6.605469 53.539062 6.695312 C 53.421875 6.789062 53.324219 6.910156 53.242188 7.054688 C 53.167969 7.203125 53.121094 7.375 53.101562 7.570312 L 52.210938 7.476562 C 52.238281 7.238281 52.308594 7.007812 52.414062 6.789062 C 52.515625 6.574219 52.664062 6.378906 52.851562 6.210938 C 53.035156 6.046875 53.261719 5.914062 53.523438 5.820312 C 53.792969 5.730469 54.105469 5.679688 54.460938 5.679688 C 54.800781 5.679688 55.105469 5.722656 55.367188 5.804688 C 55.636719 5.890625 55.859375 6.011719 56.039062 6.164062 C 56.222656 6.320312 56.367188 6.519531 56.460938 6.757812 C 56.5625 6.988281 56.617188 7.261719 56.617188 7.570312 C 56.617188 7.800781 56.574219 8.019531 56.492188 8.226562 C 56.40625 8.4375 56.292969 8.636719 56.148438 8.820312 C 56.011719 9.007812 55.847656 9.191406 55.664062 9.367188 C 55.484375 9.546875 55.296875 9.71875 55.101562 9.882812 C 54.902344 10.050781 54.703125 10.21875 54.507812 10.382812 C 54.308594 10.550781 54.113281 10.71875 53.929688 10.882812 C 53.75 11.050781 53.59375 11.21875 53.460938 11.382812 C 53.324219 11.550781 53.214844 11.730469 53.132812 11.914062 L 56.726562 11.914062 L 56.726562 12.664062 Z M 65.808594 10.726562 C 65.808594 11.070312 65.738281 11.371094 65.605469 11.617188 C 65.46875 11.867188 65.285156 12.074219 65.058594 12.226562 C 64.828125 12.375 64.554688 12.484375 64.246094 12.554688 C 63.941406 12.628906 63.617188 12.664062 63.277344 12.664062 L 60.496094 12.664062 L 60.496094 5.789062 L 62.996094 5.789062 C 63.367188 5.789062 63.707031 5.824219 64.011719 5.882812 C 64.3125 5.945312 64.566406 6.046875 64.777344 6.179688 C 64.984375 6.316406 65.140625 6.488281 65.246094 6.695312 C 65.359375 6.90625 65.417969 7.160156 65.417969 7.460938 C 65.417969 7.648438 65.382812 7.828125 65.324219 7.992188 C 65.269531 8.160156 65.1875 8.316406 65.074219 8.460938 C 64.96875 8.597656 64.832031 8.71875 64.667969 8.820312 C 64.511719 8.914062 64.320312 8.988281 64.105469 9.039062 C 64.375 9.070312 64.613281 9.136719 64.824219 9.226562 C 65.039062 9.320312 65.222656 9.441406 65.371094 9.585938 C 65.515625 9.734375 65.625 9.90625 65.699219 10.101562 C 65.769531 10.289062 65.808594 10.5 65.808594 10.726562 Z M 64.480469 7.570312 C 64.480469 7.199219 64.347656 6.929688 64.089844 6.773438 C 63.839844 6.609375 63.472656 6.523438 62.996094 6.523438 L 61.417969 6.523438 L 61.417969 8.710938 L 62.996094 8.710938 C 63.265625 8.710938 63.496094 8.6875 63.683594 8.632812 C 63.867188 8.582031 64.019531 8.503906 64.136719 8.398438 C 64.257812 8.296875 64.347656 8.175781 64.402344 8.039062 C 64.453125 7.90625 64.480469 7.75 64.480469 7.570312 Z M 64.871094 10.648438 C 64.871094 10.433594 64.828125 10.25 64.746094 10.101562 C 64.671875 9.949219 64.554688 9.820312 64.402344 9.726562 C 64.253906 9.625 64.070312 9.550781 63.855469 9.507812 C 63.644531 9.457031 63.410156 9.429688 63.152344 9.429688 L 61.417969 9.429688 L 61.417969 11.914062 L 63.230469 11.914062 C 63.46875 11.914062 63.6875 11.898438 63.886719 11.867188 C 64.082031 11.828125 64.253906 11.757812 64.402344 11.664062 C 64.546875 11.5625 64.660156 11.429688 64.746094 11.273438 C 64.828125 11.109375 64.871094 10.898438 64.871094 10.648438 Z M 66.753906 6.257812 L 66.753906 5.414062 L 67.628906 5.414062 L 67.628906 6.257812 Z M 66.753906 12.664062 L 66.753906 7.382812 L 67.628906 7.382812 L 67.628906 12.664062 Z M 70.921875 12.617188 C 70.785156 12.660156 70.648438 12.6875 70.515625 12.710938 C 70.378906 12.730469 70.214844 12.742188 70.03125 12.742188 C 69.332031 12.742188 68.984375 12.34375 68.984375 11.539062 L 68.984375 8.023438 L 68.375 8.023438 L 68.375 7.382812 L 69.015625 7.382812 L 69.28125 6.195312 L 69.859375 6.195312 L 69.859375 7.382812 L 70.84375 7.382812 L 70.84375 8.023438 L 69.859375 8.023438 L 69.859375 11.351562 C 69.859375 11.613281 69.898438 11.796875 69.984375 11.898438 C 70.066406 11.992188 70.210938 12.039062 70.421875 12.039062 C 70.503906 12.039062 70.582031 12.035156 70.65625 12.023438 C 70.738281 12.015625 70.828125 12 70.921875 11.976562 Z M 73.585938 10.085938 C 73.585938 10.546875 73.546875 10.984375 73.476562 11.398438 C 73.414062 11.804688 73.308594 12.203125 73.164062 12.585938 C 73.015625 12.957031 72.828125 13.324219 72.601562 13.679688 C 72.371094 14.042969 72.097656 14.398438 71.789062 14.742188 L 70.945312 14.742188 C 71.246094 14.398438 71.507812 14.042969 71.726562 13.679688 C 71.953125 13.324219 72.136719 12.953125 72.273438 12.570312 C 72.417969 12.1875 72.527344 11.789062 72.601562 11.382812 C 72.671875 10.96875 72.710938 10.53125 72.710938 10.070312 C 72.710938 9.625 72.671875 9.195312 72.601562 8.789062 C 72.527344 8.375 72.417969 7.972656 72.273438 7.585938 C 72.136719 7.203125 71.953125 6.832031 71.726562 6.476562 C 71.507812 6.113281 71.246094 5.757812 70.945312 5.414062 L 71.789062 5.414062 C 72.097656 5.757812 72.371094 6.113281 72.601562 6.476562 C 72.828125 6.832031 73.015625 7.203125 73.164062 7.585938 C 73.308594 7.960938 73.414062 8.359375 73.476562 8.773438 C 73.546875 9.179688 73.585938 9.613281 73.585938 10.070312 Z M 73.585938 10.085938 "/>
<path style=" stroke:none;fill-rule:nonzero;fill:rgb(0%,0%,0%);fill-opacity:1;" d="M 84.191406 6.539062 L 84.191406 12.664062 L 83.269531 12.664062 L 83.269531 6.539062 L 80.894531 6.539062 L 80.894531 5.789062 L 86.550781 5.789062 L 86.550781 6.539062 Z M 88.972656 12.664062 C 88.847656 12.984375 88.714844 13.273438 88.582031 13.523438 C 88.457031 13.78125 88.3125 14 88.160156 14.179688 C 88.003906 14.355469 87.824219 14.492188 87.628906 14.585938 C 87.429688 14.6875 87.203125 14.742188 86.957031 14.742188 C 86.839844 14.742188 86.734375 14.734375 86.644531 14.726562 C 86.550781 14.726562 86.449219 14.707031 86.347656 14.679688 L 86.347656 14.023438 C 86.40625 14.03125 86.476562 14.039062 86.550781 14.039062 C 86.632812 14.046875 86.699219 14.054688 86.753906 14.054688 C 87.011719 14.054688 87.253906 13.953125 87.472656 13.757812 C 87.6875 13.570312 87.882812 13.265625 88.050781 12.851562 L 88.144531 12.632812 L 86.050781 7.382812 L 86.988281 7.382812 L 88.097656 10.304688 C 88.125 10.390625 88.167969 10.503906 88.222656 10.648438 C 88.273438 10.796875 88.320312 10.941406 88.363281 11.085938 C 88.414062 11.234375 88.460938 11.371094 88.503906 11.492188 C 88.542969 11.609375 88.566406 11.683594 88.566406 11.710938 C 88.574219 11.671875 88.601562 11.597656 88.644531 11.492188 C 88.683594 11.390625 88.726562 11.273438 88.769531 11.148438 C 88.820312 11.015625 88.867188 10.878906 88.910156 10.742188 C 88.960938 10.609375 89.003906 10.492188 89.035156 10.398438 L 90.066406 7.382812 L 91.003906 7.382812 Z M 95.960938 9.992188 C 95.960938 10.398438 95.925781 10.777344 95.867188 11.117188 C 95.804688 11.453125 95.691406 11.746094 95.539062 11.992188 C 95.390625 12.234375 95.191406 12.421875 94.945312 12.554688 C 94.695312 12.6875 94.386719 12.757812 94.023438 12.757812 C 93.636719 12.757812 93.300781 12.6875 93.023438 12.554688 C 92.742188 12.410156 92.527344 12.171875 92.382812 11.835938 L 92.351562 11.835938 C 92.351562 11.847656 92.351562 11.878906 92.351562 11.929688 C 92.359375 11.984375 92.367188 12.050781 92.367188 12.132812 C 92.367188 12.207031 92.367188 12.296875 92.367188 12.398438 C 92.367188 12.492188 92.367188 12.589844 92.367188 12.679688 L 92.367188 14.742188 L 91.492188 14.742188 L 91.492188 8.460938 C 91.492188 8.339844 91.492188 8.21875 91.492188 8.101562 C 91.492188 7.980469 91.484375 7.867188 91.476562 7.773438 C 91.476562 7.683594 91.476562 7.601562 91.476562 7.539062 C 91.476562 7.46875 91.46875 7.414062 91.460938 7.382812 L 92.320312 7.382812 C 92.320312 7.394531 92.320312 7.433594 92.320312 7.492188 C 92.328125 7.546875 92.335938 7.613281 92.335938 7.695312 C 92.34375 7.78125 92.351562 7.871094 92.351562 7.960938 C 92.359375 8.054688 92.367188 8.144531 92.367188 8.226562 L 92.382812 8.226562 C 92.464844 8.0625 92.558594 7.921875 92.664062 7.804688 C 92.765625 7.683594 92.882812 7.582031 93.007812 7.507812 C 93.140625 7.425781 93.292969 7.367188 93.460938 7.335938 C 93.625 7.308594 93.8125 7.289062 94.023438 7.289062 C 94.386719 7.289062 94.695312 7.359375 94.945312 7.492188 C 95.191406 7.617188 95.390625 7.800781 95.539062 8.039062 C 95.691406 8.269531 95.804688 8.550781 95.867188 8.882812 C 95.925781 9.21875 95.960938 9.589844 95.960938 9.992188 Z M 95.039062 10.023438 C 95.039062 9.691406 95.015625 9.398438 94.976562 9.148438 C 94.945312 8.902344 94.875 8.6875 94.773438 8.507812 C 94.679688 8.332031 94.546875 8.195312 94.382812 8.101562 C 94.226562 8.011719 94.027344 7.960938 93.789062 7.960938 C 93.601562 7.960938 93.417969 7.996094 93.242188 8.054688 C 93.0625 8.109375 92.910156 8.214844 92.789062 8.367188 C 92.664062 8.523438 92.558594 8.746094 92.476562 9.023438 C 92.402344 9.296875 92.367188 9.652344 92.367188 10.085938 C 92.367188 10.460938 92.398438 10.78125 92.460938 11.039062 C 92.519531 11.300781 92.609375 11.511719 92.726562 11.664062 C 92.847656 11.820312 93 11.9375 93.179688 12.007812 C 93.355469 12.082031 93.558594 12.117188 93.789062 12.117188 C 94.027344 12.117188 94.226562 12.070312 94.382812 11.976562 C 94.546875 11.886719 94.679688 11.75 94.773438 11.570312 C 94.875 11.386719 94.945312 11.160156 94.976562 10.898438 C 95.015625 10.640625 95.039062 10.347656 95.039062 10.023438 Z M 97.507812 10.210938 C 97.507812 10.484375 97.53125 10.738281 97.585938 10.976562 C 97.644531 11.207031 97.734375 11.40625 97.851562 11.570312 C 97.972656 11.738281 98.132812 11.871094 98.320312 11.960938 C 98.503906 12.054688 98.730469 12.101562 98.992188 12.101562 C 99.363281 12.101562 99.667969 12.03125 99.898438 11.882812 C 100.125 11.730469 100.28125 11.53125 100.367188 11.289062 L 101.132812 11.507812 C 101.078125 11.65625 101 11.808594 100.898438 11.960938 C 100.804688 12.109375 100.671875 12.246094 100.507812 12.367188 C 100.339844 12.484375 100.128906 12.578125 99.882812 12.648438 C 99.632812 12.71875 99.332031 12.757812 98.992188 12.757812 C 98.210938 12.757812 97.609375 12.53125 97.195312 12.070312 C 96.789062 11.605469 96.585938 10.910156 96.585938 9.992188 C 96.585938 9.496094 96.648438 9.070312 96.773438 8.726562 C 96.894531 8.386719 97.0625 8.109375 97.273438 7.898438 C 97.488281 7.683594 97.742188 7.523438 98.023438 7.429688 C 98.3125 7.339844 98.621094 7.289062 98.945312 7.289062 C 99.390625 7.289062 99.761719 7.363281 100.054688 7.507812 C 100.355469 7.644531 100.59375 7.84375 100.773438 8.101562 C 100.957031 8.351562 101.089844 8.652344 101.164062 8.992188 C 101.246094 9.328125 101.289062 9.691406 101.289062 10.085938 L 101.289062 10.210938 Z M 100.367188 9.539062 C 100.324219 8.980469 100.183594 8.570312 99.945312 8.320312 C 99.714844 8.0625 99.378906 7.929688 98.945312 7.929688 C 98.789062 7.929688 98.628906 7.957031 98.476562 8.007812 C 98.320312 8.050781 98.167969 8.136719 98.023438 8.257812 C 97.886719 8.375 97.769531 8.535156 97.679688 8.742188 C 97.585938 8.953125 97.53125 9.21875 97.523438 9.539062 Z M 104.792969 10.070312 C 104.792969 9.613281 104.824219 9.179688 104.886719 8.773438 C 104.957031 8.359375 105.066406 7.960938 105.214844 7.585938 C 105.359375 7.203125 105.546875 6.832031 105.777344 6.476562 C 106.003906 6.113281 106.277344 5.757812 106.589844 5.414062 L 107.433594 5.414062 C 107.128906 5.757812 106.863281 6.113281 106.636719 6.476562 C 106.417969 6.832031 106.234375 7.203125 106.089844 7.585938 C 105.953125 7.972656 105.847656 8.375 105.777344 8.789062 C 105.703125 9.195312 105.667969 9.625 105.667969 10.070312 C 105.667969 10.53125 105.703125 10.96875 105.777344 11.382812 C 105.847656 11.789062 105.953125 12.1875 106.089844 12.570312 C 106.234375 12.953125 106.417969 13.324219 106.636719 13.679688 C 106.863281 14.042969 107.128906 14.398438 107.433594 14.742188 L 106.589844 14.742188 C 106.277344 14.398438 106.003906 14.042969 105.777344 13.679688 C 105.546875 13.324219 105.359375 12.957031 105.214844 12.585938 C 105.066406 12.203125 104.957031 11.804688 104.886719 11.398438 C 104.824219 10.984375 104.792969 10.546875 104.792969 10.085938 Z M 107.875 12.664062 L 107.875 12.039062 C 108.039062 11.667969 108.242188 11.332031 108.484375 11.039062 C 108.722656 10.75 108.972656 10.484375 109.234375 10.242188 C 109.503906 10.003906 109.765625 9.785156 110.015625 9.585938 C 110.273438 9.390625 110.507812 9.191406 110.71875 8.992188 C 110.925781 8.785156 111.09375 8.570312 111.21875 8.351562 C 111.351562 8.125 111.421875 7.875 111.421875 7.601562 C 111.421875 7.40625 111.386719 7.234375 111.328125 7.085938 C 111.273438 6.933594 111.191406 6.804688 111.078125 6.710938 C 110.972656 6.609375 110.839844 6.53125 110.6875 6.476562 C 110.53125 6.425781 110.355469 6.398438 110.171875 6.398438 C 109.992188 6.398438 109.824219 6.425781 109.671875 6.476562 C 109.515625 6.53125 109.371094 6.605469 109.25 6.695312 C 109.132812 6.789062 109.035156 6.910156 108.953125 7.054688 C 108.878906 7.203125 108.832031 7.375 108.8125 7.570312 L 107.921875 7.476562 C 107.949219 7.238281 108.019531 7.007812 108.125 6.789062 C 108.226562 6.574219 108.375 6.378906 108.5625 6.210938 C 108.746094 6.046875 108.972656 5.914062 109.234375 5.820312 C 109.503906 5.730469 109.816406 5.679688 110.171875 5.679688 C 110.511719 5.679688 110.816406 5.722656 111.078125 5.804688 C 111.347656 5.890625 111.570312 6.011719 111.75 6.164062 C 111.933594 6.320312 112.078125 6.519531 112.171875 6.757812 C 112.273438 6.988281 112.328125 7.261719 112.328125 7.570312 C 112.328125 7.800781 112.285156 8.019531 112.203125 8.226562 C 112.117188 8.4375 112.003906 8.636719 111.859375 8.820312 C 111.722656 9.007812 111.558594 9.191406 111.375 9.367188 C 111.195312 9.546875 111.007812 9.71875 110.8125 9.882812 C 110.613281 10.050781 110.414062 10.21875 110.21875 10.382812 C 110.019531 10.550781 109.824219 10.71875 109.640625 10.882812 C 109.460938 11.050781 109.304688 11.21875 109.171875 11.382812 C 109.035156 11.550781 108.925781 11.730469 108.84375 11.914062 L 112.4375 11.914062 L 112.4375 12.664062 Z M 121.523438 10.726562 C 121.523438 11.070312 121.453125 11.371094 121.320312 11.617188 C 121.183594 11.867188 121 12.074219 120.773438 12.226562 C 120.542969 12.375 120.269531 12.484375 119.960938 12.554688 C 119.65625 12.628906 119.332031 12.664062 118.992188 12.664062 L 116.210938 12.664062 L 116.210938 5.789062 L 118.710938 5.789062 C 119.082031 5.789062 119.421875 5.824219 119.726562 5.882812 C 120.027344 5.945312 120.28125 6.046875 120.492188 6.179688 C 120.699219 6.316406 120.855469 6.488281 120.960938 6.695312 C 121.074219 6.90625 121.132812 7.160156 121.132812 7.460938 C 121.132812 7.648438 121.097656 7.828125 121.039062 7.992188 C 120.984375 8.160156 120.902344 8.316406 120.789062 8.460938 C 120.683594 8.597656 120.546875 8.71875 120.382812 8.820312 C 120.226562 8.914062 120.035156 8.988281 119.820312 9.039062 C 120.089844 9.070312 120.328125 9.136719 120.539062 9.226562 C 120.753906 9.320312 120.9375 9.441406 121.085938 9.585938 C 121.230469 9.734375 121.339844 9.90625 121.414062 10.101562 C 121.484375 10.289062 121.523438 10.5 121.523438 10.726562 Z M 120.195312 7.570312 C 120.195312 7.199219 120.0625 6.929688 119.804688 6.773438 C 119.554688 6.609375 119.1875 6.523438 118.710938 6.523438 L 117.132812 6.523438 L 117.132812 8.710938 L 118.710938 8.710938 C 118.980469 8.710938 119.210938 8.6875 119.398438 8.632812 C 119.582031 8.582031 119.734375 8.503906 119.851562 8.398438 C 119.972656 8.296875 120.0625 8.175781 120.117188 8.039062 C 120.167969 7.90625 120.195312 7.75 120.195312 7.570312 Z M 120.585938 10.648438 C 120.585938 10.433594 120.542969 10.25 120.460938 10.101562 C 120.386719 9.949219 120.269531 9.820312 120.117188 9.726562 C 119.96875 9.625 119.785156 9.550781 119.570312 9.507812 C 119.359375 9.457031 119.125 9.429688 118.867188 9.429688 L 117.132812 9.429688 L 117.132812 11.914062 L 118.945312 11.914062 C 119.183594 11.914062 119.402344 11.898438 119.601562 11.867188 C 119.796875 11.828125 119.96875 11.757812 120.117188 11.664062 C 120.261719 11.5625 120.375 11.429688 120.460938 11.273438 C 120.542969 11.109375 120.585938 10.898438 120.585938 10.648438 Z M 122.464844 6.257812 L 122.464844 5.414062 L 123.339844 5.414062 L 123.339844 6.257812 Z M 122.464844 12.664062 L 122.464844 7.382812 L 123.339844 7.382812 L 123.339844 12.664062 Z M 126.632812 12.617188 C 126.496094 12.660156 126.359375 12.6875 126.226562 12.710938 C 126.089844 12.730469 125.925781 12.742188 125.742188 12.742188 C 125.042969 12.742188 124.695312 12.34375 124.695312 11.539062 L 124.695312 8.023438 L 124.085938 8.023438 L 124.085938 7.382812 L 124.726562 7.382812 L 124.992188 6.195312 L 125.570312 6.195312 L 125.570312 7.382812 L 126.554688 7.382812 L 126.554688 8.023438 L 125.570312 8.023438 L 125.570312 11.351562 C 125.570312 11.613281 125.609375 11.796875 125.695312 11.898438 C 125.777344 11.992188 125.921875 12.039062 126.132812 12.039062 C 126.214844 12.039062 126.292969 12.035156 126.367188 12.023438 C 126.449219 12.015625 126.539062 12 126.632812 11.976562 Z M 129.296875 10.085938 C 129.296875 10.546875 129.257812 10.984375 129.1875 11.398438 C 129.125 11.804688 129.019531 12.203125 128.875 12.585938 C 128.726562 12.957031 128.539062 13.324219 128.3125 13.679688 C 128.082031 14.042969 127.808594 14.398438 127.5 14.742188 L 126.65625 14.742188 C 126.957031 14.398438 127.21875 14.042969 127.4375 13.679688 C 127.664062 13.324219 127.847656 12.953125 127.984375 12.570312 C 128.128906 12.1875 128.238281 11.789062 128.3125 11.382812 C 128.382812 10.96875 128.421875 10.53125 128.421875 10.070312 C 128.421875 9.625 128.382812 9.195312 128.3125 8.789062 C 128.238281 8.375 128.128906 7.972656 127.984375 7.585938 C 127.847656 7.203125 127.664062 6.832031 127.4375 6.476562 C 127.21875 6.113281 126.957031 5.757812 126.65625 5.414062 L 127.5 5.414062 C 127.808594 5.757812 128.082031 6.113281 128.3125 6.476562 C 128.539062 6.832031 128.726562 7.203125 128.875 7.585938 C 129.019531 7.960938 129.125 8.359375 129.1875 8.773438 C 129.257812 9.179688 129.296875 9.613281 129.296875 10.070312 Z M 129.296875 10.085938 "/>
<path style=" stroke:none;fill-rule:nonzero;fill:rgb(0%,0%,0%);fill-opacity:1;" d="M 146.894531 10.757812 C 146.894531 11.050781 146.835938 11.324219 146.722656 11.570312 C 146.605469 11.8125 146.429688 12.019531 146.191406 12.195312 C 145.960938 12.375 145.667969 12.515625 145.316406 12.617188 C 144.960938 12.707031 144.539062 12.757812 144.050781 12.757812 C 143.183594 12.757812 142.511719 12.613281 142.035156 12.320312 C 141.566406 12.019531 141.261719 11.582031 141.128906 11.007812 L 142.035156 10.835938 C 142.074219 11.015625 142.144531 11.175781 142.238281 11.320312 C 142.328125 11.46875 142.457031 11.59375 142.613281 11.695312 C 142.777344 11.800781 142.980469 11.886719 143.222656 11.945312 C 143.460938 12.007812 143.746094 12.039062 144.082031 12.039062 C 144.351562 12.039062 144.601562 12.019531 144.832031 11.976562 C 145.070312 11.925781 145.273438 11.851562 145.441406 11.757812 C 145.605469 11.65625 145.730469 11.523438 145.816406 11.367188 C 145.90625 11.214844 145.957031 11.03125 145.957031 10.820312 C 145.957031 10.59375 145.902344 10.410156 145.800781 10.273438 C 145.707031 10.128906 145.5625 10.015625 145.378906 9.929688 C 145.191406 9.839844 144.964844 9.757812 144.707031 9.695312 C 144.457031 9.636719 144.171875 9.566406 143.863281 9.492188 C 143.664062 9.453125 143.464844 9.40625 143.269531 9.351562 C 143.082031 9.300781 142.898438 9.242188 142.722656 9.179688 C 142.542969 9.109375 142.375 9.023438 142.222656 8.929688 C 142.066406 8.839844 141.929688 8.722656 141.816406 8.585938 C 141.699219 8.453125 141.609375 8.300781 141.550781 8.132812 C 141.488281 7.957031 141.457031 7.753906 141.457031 7.523438 C 141.457031 7.203125 141.519531 6.925781 141.644531 6.695312 C 141.777344 6.457031 141.960938 6.265625 142.191406 6.117188 C 142.429688 5.964844 142.707031 5.851562 143.019531 5.789062 C 143.339844 5.71875 143.691406 5.679688 144.066406 5.679688 C 144.492188 5.679688 144.855469 5.71875 145.160156 5.789062 C 145.460938 5.851562 145.714844 5.953125 145.925781 6.085938 C 146.132812 6.222656 146.300781 6.390625 146.425781 6.585938 C 146.546875 6.773438 146.648438 7 146.722656 7.257812 L 145.800781 7.429688 C 145.757812 7.265625 145.695312 7.117188 145.613281 6.992188 C 145.527344 6.859375 145.414062 6.75 145.269531 6.664062 C 145.132812 6.574219 144.960938 6.503906 144.753906 6.460938 C 144.554688 6.410156 144.320312 6.382812 144.050781 6.382812 C 143.738281 6.382812 143.46875 6.417969 143.253906 6.476562 C 143.035156 6.53125 142.855469 6.609375 142.722656 6.710938 C 142.597656 6.804688 142.5 6.921875 142.441406 7.054688 C 142.386719 7.179688 142.363281 7.324219 142.363281 7.476562 C 142.363281 7.675781 142.414062 7.84375 142.519531 7.976562 C 142.621094 8.113281 142.757812 8.230469 142.925781 8.320312 C 143.101562 8.40625 143.304688 8.480469 143.535156 8.539062 C 143.773438 8.59375 144.023438 8.652344 144.285156 8.710938 C 144.492188 8.753906 144.699219 8.800781 144.910156 8.851562 C 145.117188 8.90625 145.316406 8.96875 145.503906 9.039062 C 145.699219 9.101562 145.882812 9.183594 146.050781 9.273438 C 146.214844 9.367188 146.363281 9.488281 146.488281 9.632812 C 146.609375 9.769531 146.710938 9.933594 146.785156 10.117188 C 146.855469 10.296875 146.894531 10.511719 146.894531 10.757812 Z M 147.757812 6.257812 L 147.757812 5.414062 L 148.632812 5.414062 L 148.632812 6.257812 Z M 147.757812 12.664062 L 147.757812 7.382812 L 148.632812 7.382812 L 148.632812 12.664062 Z M 149.460938 12.664062 L 149.460938 11.992188 L 152.695312 8.054688 L 149.664062 8.054688 L 149.664062 7.382812 L 153.679688 7.382812 L 153.679688 8.054688 L 150.445312 11.992188 L 153.867188 11.992188 L 153.867188 12.664062 Z M 155.367188 10.210938 C 155.367188 10.484375 155.390625 10.738281 155.445312 10.976562 C 155.503906 11.207031 155.59375 11.40625 155.710938 11.570312 C 155.832031 11.738281 155.992188 11.871094 156.179688 11.960938 C 156.363281 12.054688 156.589844 12.101562 156.851562 12.101562 C 157.222656 12.101562 157.527344 12.03125 157.757812 11.882812 C 157.984375 11.730469 158.140625 11.53125 158.226562 11.289062 L 158.992188 11.507812 C 158.9375 11.65625 158.859375 11.808594 158.757812 11.960938 C 158.664062 12.109375 158.53125 12.246094 158.367188 12.367188 C 158.199219 12.484375 157.988281 12.578125 157.742188 12.648438 C 157.492188 12.71875 157.191406 12.757812 156.851562 12.757812 C 156.070312 12.757812 155.46875 12.53125 155.054688 12.070312 C 154.648438 11.605469 154.445312 10.910156 154.445312 9.992188 C 154.445312 9.496094 154.507812 9.070312 154.632812 8.726562 C 154.753906 8.386719 154.921875 8.109375 155.132812 7.898438 C 155.347656 7.683594 155.601562 7.523438 155.882812 7.429688 C 156.171875 7.339844 156.480469 7.289062 156.804688 7.289062 C 157.25 7.289062 157.621094 7.363281 157.914062 7.507812 C 158.214844 7.644531 158.453125 7.84375 158.632812 8.101562 C 158.816406 8.351562 158.949219 8.652344 159.023438 8.992188 C 159.105469 9.328125 159.148438 9.691406 159.148438 10.085938 L 159.148438 10.210938 Z M 158.226562 9.539062 C 158.183594 8.980469 158.042969 8.570312 157.804688 8.320312 C 157.574219 8.0625 157.238281 7.929688 156.804688 7.929688 C 156.648438 7.929688 156.488281 7.957031 156.335938 8.007812 C 156.179688 8.050781 156.027344 8.136719 155.882812 8.257812 C 155.746094 8.375 155.628906 8.535156 155.539062 8.742188 C 155.445312 8.953125 155.390625 9.21875 155.382812 9.539062 Z M 162.65625 10.070312 C 162.65625 9.613281 162.6875 9.179688 162.75 8.773438 C 162.820312 8.359375 162.929688 7.960938 163.078125 7.585938 C 163.222656 7.203125 163.410156 6.832031 163.640625 6.476562 C 163.867188 6.113281 164.140625 5.757812 164.453125 5.414062 L 165.296875 5.414062 C 164.992188 5.757812 164.726562 6.113281 164.5 6.476562 C 164.28125 6.832031 164.097656 7.203125 163.953125 7.585938 C 163.816406 7.972656 163.710938 8.375 163.640625 8.789062 C 163.566406 9.195312 163.53125 9.625 163.53125 10.070312 C 163.53125 10.53125 163.566406 10.96875 163.640625 11.382812 C 163.710938 11.789062 163.816406 12.1875 163.953125 12.570312 C 164.097656 12.953125 164.28125 13.324219 164.5 13.679688 C 164.726562 14.042969 164.992188 14.398438 165.296875 14.742188 L 164.453125 14.742188 C 164.140625 14.398438 163.867188 14.042969 163.640625 13.679688 C 163.410156 13.324219 163.222656 12.957031 163.078125 12.585938 C 162.929688 12.203125 162.820312 11.804688 162.75 11.398438 C 162.6875 10.984375 162.65625 10.546875 162.65625 10.085938 Z M 170.363281 10.742188 C 170.363281 11.035156 170.3125 11.308594 170.222656 11.554688 C 170.128906 11.796875 169.984375 12.011719 169.800781 12.195312 C 169.613281 12.375 169.367188 12.515625 169.066406 12.617188 C 168.773438 12.707031 168.421875 12.757812 168.019531 12.757812 C 167.613281 12.757812 167.261719 12.707031 166.972656 12.617188 C 166.679688 12.515625 166.433594 12.375 166.238281 12.195312 C 166.050781 12.019531 165.90625 11.8125 165.816406 11.570312 C 165.722656 11.324219 165.675781 11.050781 165.675781 10.757812 C 165.675781 10.511719 165.710938 10.285156 165.785156 10.085938 C 165.867188 9.890625 165.972656 9.722656 166.097656 9.585938 C 166.21875 9.441406 166.367188 9.328125 166.535156 9.242188 C 166.699219 9.152344 166.871094 9.09375 167.050781 9.070312 L 167.050781 9.039062 C 166.851562 9 166.671875 8.929688 166.519531 8.835938 C 166.371094 8.734375 166.246094 8.609375 166.144531 8.460938 C 166.039062 8.316406 165.960938 8.160156 165.910156 7.992188 C 165.855469 7.816406 165.832031 7.632812 165.832031 7.445312 C 165.832031 7.207031 165.878906 6.984375 165.972656 6.773438 C 166.0625 6.558594 166.199219 6.367188 166.378906 6.210938 C 166.5625 6.046875 166.792969 5.914062 167.066406 5.820312 C 167.335938 5.730469 167.648438 5.679688 168.003906 5.679688 C 168.375 5.679688 168.699219 5.730469 168.972656 5.820312 C 169.25 5.914062 169.480469 6.046875 169.660156 6.210938 C 169.835938 6.367188 169.964844 6.558594 170.050781 6.773438 C 170.140625 6.984375 170.191406 7.214844 170.191406 7.460938 C 170.191406 7.648438 170.164062 7.832031 170.113281 8.007812 C 170.058594 8.175781 169.980469 8.332031 169.878906 8.476562 C 169.773438 8.613281 169.640625 8.734375 169.488281 8.835938 C 169.339844 8.929688 169.167969 9 168.972656 9.039062 L 168.972656 9.054688 C 169.167969 9.085938 169.351562 9.152344 169.519531 9.242188 C 169.695312 9.328125 169.839844 9.441406 169.957031 9.585938 C 170.078125 9.722656 170.179688 9.890625 170.253906 10.085938 C 170.324219 10.273438 170.363281 10.496094 170.363281 10.742188 Z M 169.285156 7.507812 C 169.285156 7.332031 169.257812 7.175781 169.207031 7.039062 C 169.164062 6.894531 169.089844 6.769531 168.988281 6.664062 C 168.894531 6.5625 168.761719 6.484375 168.597656 6.429688 C 168.441406 6.371094 168.242188 6.335938 168.003906 6.335938 C 167.773438 6.335938 167.574219 6.371094 167.410156 6.429688 C 167.253906 6.484375 167.121094 6.5625 167.019531 6.664062 C 166.914062 6.769531 166.839844 6.894531 166.800781 7.039062 C 166.757812 7.175781 166.738281 7.332031 166.738281 7.507812 C 166.738281 7.644531 166.753906 7.785156 166.785156 7.929688 C 166.824219 8.066406 166.894531 8.199219 166.988281 8.320312 C 167.078125 8.4375 167.210938 8.53125 167.378906 8.601562 C 167.542969 8.675781 167.757812 8.710938 168.019531 8.710938 C 168.289062 8.710938 168.507812 8.675781 168.675781 8.601562 C 168.839844 8.53125 168.964844 8.4375 169.050781 8.320312 C 169.140625 8.199219 169.207031 8.066406 169.238281 7.929688 C 169.265625 7.785156 169.285156 7.644531 169.285156 7.507812 Z M 169.457031 10.664062 C 169.457031 10.5 169.429688 10.335938 169.378906 10.179688 C 169.335938 10.027344 169.257812 9.890625 169.144531 9.773438 C 169.039062 9.652344 168.890625 9.550781 168.707031 9.476562 C 168.519531 9.40625 168.28125 9.367188 168.003906 9.367188 C 167.742188 9.367188 167.523438 9.40625 167.347656 9.476562 C 167.167969 9.550781 167.023438 9.652344 166.910156 9.773438 C 166.792969 9.898438 166.710938 10.042969 166.660156 10.195312 C 166.605469 10.351562 166.582031 10.515625 166.582031 10.679688 C 166.582031 10.890625 166.605469 11.082031 166.660156 11.257812 C 166.710938 11.4375 166.792969 11.589844 166.910156 11.710938 C 167.023438 11.835938 167.167969 11.9375 167.347656 12.007812 C 167.53125 12.070312 167.761719 12.101562 168.035156 12.101562 C 168.292969 12.101562 168.511719 12.070312 168.691406 12.007812 C 168.875 11.9375 169.027344 11.835938 169.144531 11.710938 C 169.257812 11.589844 169.335938 11.4375 169.378906 11.257812 C 169.429688 11.082031 169.457031 10.882812 169.457031 10.664062 Z M 179.382812 10.726562 C 179.382812 11.070312 179.3125 11.371094 179.179688 11.617188 C 179.042969 11.867188 178.859375 12.074219 178.632812 12.226562 C 178.402344 12.375 178.128906 12.484375 177.820312 12.554688 C 177.515625 12.628906 177.191406 12.664062 176.851562 12.664062 L 174.070312 12.664062 L 174.070312 5.789062 L 176.570312 5.789062 C 176.941406 5.789062 177.28125 5.824219 177.585938 5.882812 C 177.886719 5.945312 178.140625 6.046875 178.351562 6.179688 C 178.558594 6.316406 178.714844 6.488281 178.820312 6.695312 C 178.933594 6.90625 178.992188 7.160156 178.992188 7.460938 C 178.992188 7.648438 178.957031 7.828125 178.898438 7.992188 C 178.84375 8.160156 178.761719 8.316406 178.648438 8.460938 C 178.542969 8.597656 178.40625 8.71875 178.242188 8.820312 C 178.085938 8.914062 177.894531 8.988281 177.679688 9.039062 C 177.949219 9.070312 178.1875 9.136719 178.398438 9.226562 C 178.613281 9.320312 178.796875 9.441406 178.945312 9.585938 C 179.089844 9.734375 179.199219 9.90625 179.273438 10.101562 C 179.34375 10.289062 179.382812 10.5 179.382812 10.726562 Z M 178.054688 7.570312 C 178.054688 7.199219 177.921875 6.929688 177.664062 6.773438 C 177.414062 6.609375 177.046875 6.523438 176.570312 6.523438 L 174.992188 6.523438 L 174.992188 8.710938 L 176.570312 8.710938 C 176.839844 8.710938 177.070312 8.6875 177.257812 8.632812 C 177.441406 8.582031 177.59375 8.503906 177.710938 8.398438 C 177.832031 8.296875 177.921875 8.175781 177.976562 8.039062 C 178.027344 7.90625 178.054688 7.75 178.054688 7.570312 Z M 178.445312 10.648438 C 178.445312 10.433594 178.402344 10.25 178.320312 10.101562 C 178.246094 9.949219 178.128906 9.820312 177.976562 9.726562 C 177.828125 9.625 177.644531 9.550781 177.429688 9.507812 C 177.21875 9.457031 176.984375 9.429688 176.726562 9.429688 L 174.992188 9.429688 L 174.992188 11.914062 L 176.804688 11.914062 C 177.042969 11.914062 177.261719 11.898438 177.460938 11.867188 C 177.65625 11.828125 177.828125 11.757812 177.976562 11.664062 C 178.121094 11.5625 178.234375 11.429688 178.320312 11.273438 C 178.402344 11.109375 178.445312 10.898438 178.445312 10.648438 Z M 180.328125 6.257812 L 180.328125 5.414062 L 181.203125 5.414062 L 181.203125 6.257812 Z M 180.328125 12.664062 L 180.328125 7.382812 L 181.203125 7.382812 L 181.203125 12.664062 Z M 184.496094 12.617188 C 184.359375 12.660156 184.222656 12.6875 184.089844 12.710938 C 183.953125 12.730469 183.789062 12.742188 183.605469 12.742188 C 182.90625 12.742188 182.558594 12.34375 182.558594 11.539062 L 182.558594 8.023438 L 181.949219 8.023438 L 181.949219 7.382812 L 182.589844 7.382812 L 182.855469 6.195312 L 183.433594 6.195312 L 183.433594 7.382812 L 184.417969 7.382812 L 184.417969 8.023438 L 183.433594 8.023438 L 183.433594 11.351562 C 183.433594 11.613281 183.472656 11.796875 183.558594 11.898438 C 183.640625 11.992188 183.785156 12.039062 183.996094 12.039062 C 184.078125 12.039062 184.15625 12.035156 184.230469 12.023438 C 184.3125 12.015625 184.402344 12 184.496094 11.976562 Z M 187.160156 10.085938 C 187.160156 10.546875 187.121094 10.984375 187.050781 11.398438 C 186.988281 11.804688 186.882812 12.203125 186.738281 12.585938 C 186.589844 12.957031 186.402344 13.324219 186.175781 13.679688 C 185.945312 14.042969 185.671875 14.398438 185.363281 14.742188 L 184.519531 14.742188 C 184.820312 14.398438 185.082031 14.042969 185.300781 13.679688 C 185.527344 13.324219 185.710938 12.953125 185.847656 12.570312 C 185.992188 12.1875 186.101562 11.789062 186.175781 11.382812 C 186.246094 10.96875 186.285156 10.53125 186.285156 10.070312 C 186.285156 9.625 186.246094 9.195312 186.175781 8.789062 C 186.101562 8.375 185.992188 7.972656 185.847656 7.585938 C 185.710938 7.203125 185.527344 6.832031 185.300781 6.476562 C 185.082031 6.113281 184.820312 5.757812 184.519531 5.414062 L 185.363281 5.414062 C 185.671875 5.757812 185.945312 6.113281 186.175781 6.476562 C 186.402344 6.832031 186.589844 7.203125 186.738281 7.585938 C 186.882812 7.960938 186.988281 8.359375 187.050781 8.773438 C 187.121094 9.179688 187.160156 9.613281 187.160156 10.070312 Z M 187.160156 10.085938 "/>
</g>
</svg>
